<svg width="57" height="56" viewBox="0 0 57 56" fill="none" xmlns="http://www.w3.org/2000/svg">
<path d="M21.3304 25.4547C21.3304 25.8375 21.372 26.148 21.4449 26.3756C21.5281 26.6032 21.6321 26.8516 21.7778 27.1206C21.8298 27.2034 21.8507 27.2861 21.8507 27.3586C21.8507 27.462 21.7882 27.5655 21.653 27.669L20.9974 28.1036C20.9038 28.1657 20.8102 28.1967 20.7269 28.1967C20.6229 28.1967 20.5188 28.145 20.4148 28.0518C20.2691 27.8966 20.1442 27.7311 20.0402 27.5655C19.9361 27.3896 19.8321 27.193 19.7176 26.955C18.906 27.907 17.8863 28.383 16.6585 28.383C15.7845 28.383 15.0874 28.1346 14.5775 27.638C14.0677 27.1413 13.8076 26.4791 13.8076 25.6513C13.8076 24.7718 14.1197 24.0578 14.7544 23.5198C15.3891 22.9817 16.2319 22.7127 17.3037 22.7127C17.6574 22.7127 18.0216 22.7437 18.4066 22.7954C18.7916 22.8472 19.187 22.93 19.6032 23.0231V22.2677C19.6032 21.4813 19.4367 20.9329 19.1141 20.6122C18.7812 20.2914 18.2193 20.1362 17.4181 20.1362C17.0539 20.1362 16.6793 20.1776 16.2944 20.2707C15.9094 20.3638 15.5348 20.4777 15.1706 20.6225C15.0041 20.695 14.8793 20.7363 14.8064 20.757C14.7336 20.7777 14.6816 20.7881 14.64 20.7881C14.4943 20.7881 14.4215 20.6846 14.4215 20.4673V19.9603C14.4215 19.7947 14.4423 19.6706 14.4943 19.5981C14.5463 19.5257 14.64 19.4533 14.7856 19.3809C15.1498 19.1946 15.5868 19.0394 16.0967 18.9152C16.6065 18.7807 17.1476 18.7186 17.7199 18.7186C18.9581 18.7186 19.8633 18.998 20.446 19.5568C21.0183 20.1155 21.3096 20.964 21.3096 22.1022V25.4547H21.3304ZM17.106 27.0275C17.4493 27.0275 17.8031 26.9654 18.1777 26.8412C18.5523 26.717 18.8852 26.4894 19.1662 26.179C19.3326 25.9824 19.4575 25.7651 19.5199 25.5168C19.5824 25.2684 19.624 24.9684 19.624 24.6166V24.182C19.3222 24.1095 18.9997 24.0475 18.6667 24.0061C18.3337 23.9647 18.0112 23.944 17.6886 23.944C16.9915 23.944 16.4817 24.0785 16.1383 24.3579C15.7949 24.6373 15.6284 25.0304 15.6284 25.5478C15.6284 26.0341 15.7533 26.3963 16.0134 26.6446C16.2631 26.9033 16.6273 27.0275 17.106 27.0275ZM25.4612 28.145C25.2739 28.145 25.1491 28.1139 25.0658 28.0415C24.9826 27.9794 24.9097 27.8345 24.8473 27.638L22.4021 19.6395C22.3397 19.4326 22.3085 19.2981 22.3085 19.2256C22.3085 19.0601 22.3917 18.967 22.5582 18.967H23.5779C23.7756 18.967 23.9109 18.998 23.9837 19.0704C24.0669 19.1325 24.1294 19.2774 24.1918 19.474L25.9398 26.3239L27.563 19.474C27.615 19.267 27.6775 19.1325 27.7607 19.0704C27.844 19.0084 27.9896 18.967 28.1769 18.967H29.0093C29.207 18.967 29.3423 18.998 29.4255 19.0704C29.5088 19.1325 29.5816 19.2774 29.6232 19.474L31.2672 26.4066L33.0673 19.474C33.1297 19.267 33.2026 19.1325 33.2754 19.0704C33.3586 19.0084 33.4939 18.967 33.6812 18.967H34.6489C34.8153 18.967 34.909 19.0497 34.909 19.2256C34.909 19.2774 34.8986 19.3291 34.8882 19.3912C34.8778 19.4533 34.857 19.5361 34.8153 19.6499L32.3077 27.6483C32.2453 27.8552 32.1725 27.9898 32.0892 28.0518C32.006 28.1139 31.8707 28.1553 31.6938 28.1553H30.799C30.6013 28.1553 30.466 28.1243 30.3828 28.0518C30.2995 27.9794 30.2267 27.8449 30.1851 27.638L28.5723 20.964L26.9699 27.6276C26.9179 27.8345 26.8555 27.9691 26.7722 28.0415C26.689 28.1139 26.5433 28.145 26.356 28.145H25.4612ZM38.8317 28.4243C38.2906 28.4243 37.7496 28.3623 37.2293 28.2381C36.7091 28.1139 36.3033 27.9794 36.0327 27.8242C35.8662 27.7311 35.7518 27.6276 35.7102 27.5345C35.6686 27.4414 35.6477 27.3379 35.6477 27.2448V26.717C35.6477 26.4998 35.731 26.3963 35.8871 26.3963C35.9495 26.3963 36.0119 26.4066 36.0743 26.4273C36.1368 26.448 36.2304 26.4894 36.3345 26.5308C36.6882 26.686 37.0732 26.8102 37.479 26.893C37.8952 26.9757 38.301 27.0171 38.7172 27.0171C39.3727 27.0171 39.8826 26.9033 40.2364 26.6757C40.5901 26.448 40.7774 26.1169 40.7774 25.6927C40.7774 25.4029 40.6838 25.165 40.4965 24.9684C40.3092 24.7718 39.9554 24.5959 39.4456 24.4303L37.9368 23.9647C37.1773 23.7267 36.6154 23.3749 36.272 22.9093C35.9287 22.454 35.7518 21.947 35.7518 21.4089C35.7518 20.9743 35.8454 20.5915 36.0327 20.2604C36.22 19.9293 36.4697 19.6395 36.7819 19.4119C37.094 19.1739 37.4478 18.998 37.864 18.8738C38.2802 18.7497 38.7172 18.6979 39.175 18.6979C39.404 18.6979 39.6433 18.7083 39.8722 18.7393C40.1115 18.7704 40.33 18.8118 40.5485 18.8531C40.7566 18.9049 40.9543 18.9566 41.1416 19.0187C41.3289 19.0808 41.4746 19.1429 41.5786 19.205C41.7243 19.2877 41.8283 19.3705 41.8908 19.4636C41.9532 19.5464 41.9844 19.6602 41.9844 19.8051V20.2914C41.9844 20.5087 41.9012 20.6225 41.7451 20.6225C41.6619 20.6225 41.5266 20.5811 41.3497 20.4984C40.7566 20.2293 40.0907 20.0948 39.3519 20.0948C38.7588 20.0948 38.2906 20.1879 37.9681 20.3845C37.6455 20.5811 37.479 20.8812 37.479 21.3054C37.479 21.5952 37.5831 21.8435 37.7912 22.0401C37.9993 22.2367 38.3843 22.4333 38.9357 22.6092L40.4132 23.0748C41.1624 23.3128 41.7035 23.6439 42.026 24.0682C42.3486 24.4924 42.5047 24.9787 42.5047 25.5168C42.5047 25.9617 42.411 26.3652 42.2341 26.717C42.0468 27.0689 41.7971 27.3793 41.4746 27.6276C41.152 27.8863 40.767 28.0725 40.3196 28.2071C39.8514 28.3519 39.3623 28.4243 38.8317 28.4243Z" fill="#252F3E"/>
<path fill-rule="evenodd" clip-rule="evenodd" d="M40.7982 33.4531C37.3749 35.9675 32.4013 37.3023 28.1249 37.3023C22.1316 37.3023 16.7313 35.0983 12.6526 31.4354C12.33 31.1457 12.6214 30.7525 13.0063 30.9801C17.4181 33.5255 22.8599 35.0673 28.489 35.0673C32.2869 35.0673 36.4593 34.2809 40.2987 32.6667C40.871 32.408 41.3601 33.0392 40.7982 33.4531Z" fill="#FF9900"/>
<path fill-rule="evenodd" clip-rule="evenodd" d="M42.2237 31.8389C41.7867 31.2802 39.3311 31.5699 38.2178 31.7044C37.8849 31.7458 37.8328 31.4561 38.1346 31.2388C40.0907 29.873 43.3058 30.2661 43.6804 30.7214C44.055 31.1871 43.5764 34.3843 41.7451 35.9157C41.4642 36.1537 41.1936 36.0296 41.3185 35.7191C41.7347 34.6948 42.6607 32.3873 42.2237 31.8389Z" fill="#FF9900"/>
</svg>
