<svg width="56" height="56" viewBox="0 0 56 56" fill="none" xmlns="http://www.w3.org/2000/svg">
<path d="M41.7161 12.4446L39.2169 40.4413L27.9832 43.5557L16.7804 40.4457L14.2839 12.4446H41.7161Z" fill="#264DE4"/>
<path d="M37.0774 38.6586L39.2131 14.7341H28V41.1752L37.0774 38.6586Z" fill="#2965F1"/>
<path d="M20.007 25.1193L20.3148 28.5535H28V25.1193H20.007Z" fill="#EBEBEB"/>
<path d="M28 18.1683H27.9881H19.3885L19.7007 21.6026H28V18.1683Z" fill="#EBEBEB"/>
<path d="M28 37.6113V34.0383L27.9849 34.0423L24.1602 33.0095L23.9157 30.2706H22.0572H20.4683L20.9494 35.6628L27.9841 37.6157L28 37.6113Z" fill="#EBEBEB"/>
<path d="M32.217 28.5535L31.8183 33.0074L27.9881 34.0412V37.6141L35.0284 35.6629L35.0801 35.0827L35.8871 26.0415L35.9709 25.1193L36.5909 18.1683H27.9881V21.6026H32.8273L32.5148 25.1193H27.9881V28.5535H32.217Z" fill="white"/>
</svg>
