<svg width="56" height="56" viewBox="0 0 56 56" fill="none" xmlns="http://www.w3.org/2000/svg">
<g clip-path="url(#clip0_13_5569)">
<path d="M33.2009 21.0119H34.3806L37.7414 17.6511L37.9067 16.2251C31.6534 10.7058 22.1073 11.3005 16.588 17.5539C15.0534 19.291 13.9402 21.3571 13.3341 23.5933C13.7084 23.4394 14.1233 23.415 14.5138 23.522L21.2338 22.4136C21.2338 22.4136 21.5757 21.8481 21.7524 21.8837C24.7421 18.6007 29.7736 18.2182 33.2252 21.0119H33.2009Z" fill="#EA4335"/>
<path d="M42.5282 23.5933C41.7552 20.7494 40.1704 18.1923 37.965 16.2365L33.2495 20.952C35.241 22.5789 36.3753 25.0307 36.3267 27.6023V28.4401C38.6456 28.4401 40.5237 30.3198 40.5237 32.6371C40.5237 34.9559 38.644 36.8341 36.3267 36.8341H27.9312L27.0934 37.6832V42.7179L27.9312 43.5557H36.3267C41.1395 43.593 45.4093 40.4736 46.8386 35.878C48.2646 31.2808 46.5145 26.2898 42.5282 23.5933Z" fill="#4285F4"/>
<path d="M19.5243 43.5087H27.9198V36.7886H19.5243C18.9263 36.7886 18.3348 36.6606 17.7904 36.4111L16.6107 36.7757L13.2272 40.1365L12.9323 41.3162C14.8298 42.7487 17.1454 43.5184 19.5243 43.5087Z" fill="#34A853"/>
<path d="M19.5242 21.7071C14.8606 21.7346 10.73 24.7211 9.24245 29.1401C7.75487 33.5591 9.23759 38.4367 12.9338 41.2789L17.8033 36.4095C15.6902 35.455 14.752 32.9692 15.7064 30.8562C16.6609 28.7431 19.1467 27.8049 21.2597 28.7593C22.1899 29.1806 22.9353 29.926 23.3566 30.8562L28.2261 25.9867C26.1535 23.2789 22.9337 21.6957 19.5242 21.7071Z" fill="#FBBC05"/>
</g>
<defs>
<clipPath id="clip0_13_5569">
<rect width="38.6592" height="31.1111" fill="white" transform="translate(8.67041 12.4446)"/>
</clipPath>
</defs>
</svg>
