<svg width="57" height="56" viewBox="0 0 57 56" fill="none" xmlns="http://www.w3.org/2000/svg">
<path d="M43.7989 12.4446H12.514V43.5557H43.7989V12.4446Z" fill="#F7DF1E"/>
<path d="M33.5295 36.7503C34.1597 37.7735 34.9795 38.5256 36.4296 38.5256C37.6477 38.5256 38.4258 37.9202 38.4258 37.0836C38.4258 36.0811 37.6263 35.7261 36.2855 35.1429L35.5506 34.8293C33.4292 33.9305 32.0199 32.8046 32.0199 30.4243C32.0199 28.2318 33.6998 26.5626 36.3253 26.5626C38.1944 26.5626 39.5382 27.2095 40.5065 28.9034L38.2173 30.3651C37.7132 29.4663 37.1695 29.1123 36.3253 29.1123C35.4642 29.1123 34.9184 29.6555 34.9184 30.3651C34.9184 31.2421 35.4647 31.5972 36.726 32.1404L37.461 32.4535C39.9588 33.5187 41.3691 34.6046 41.3691 37.0461C41.3691 39.6782 39.2899 41.1202 36.4976 41.1202C33.7674 41.1202 32.0035 39.8263 31.1404 38.1305L33.5295 36.7503ZM23.1444 37.0036C23.6062 37.8184 24.0263 38.5073 25.0364 38.5073C26.0022 38.5073 26.6116 38.1315 26.6116 36.6703V26.7295H29.5513V36.7098C29.5513 39.7369 27.7666 41.1147 25.1615 41.1147C22.8077 41.1147 21.4446 39.9034 20.7513 38.4443L23.1444 37.0036Z" fill="black"/>
</svg>
