<svg width="57" height="56" viewBox="0 0 57 56" fill="none" xmlns="http://www.w3.org/2000/svg">
<path d="M28.0585 12.5295L28.8934 14.0889C29.081 14.3766 29.2844 14.6313 29.5239 14.8685C30.2261 15.5581 30.8806 16.2941 31.483 17.0714C32.8975 18.9185 33.8517 20.9697 34.533 23.1882C34.9417 24.5434 35.1636 25.9335 35.1802 27.3393C35.2486 31.5419 33.7998 35.1505 30.8788 38.1496C30.4037 38.6252 29.8904 39.0615 29.344 39.4542C29.0547 39.4542 28.9178 39.2335 28.7985 39.0303C28.5813 38.6536 28.4368 38.2398 28.3723 37.8103C28.2697 37.3019 28.2022 36.7934 28.2354 36.2685V36.0313C28.212 35.9807 27.9568 12.6491 28.0585 12.5295Z" fill="#599636"/>
<path d="M28.0585 12.478C28.0243 12.41 27.9901 12.4615 27.9559 12.4946C27.9725 12.8348 27.8532 13.1381 27.6665 13.4278C27.4612 13.7156 27.1894 13.9363 26.9167 14.1735C25.4014 15.4781 24.2088 17.0539 23.2537 18.8164C21.9828 21.1885 21.3279 23.7307 21.1421 26.407C21.0571 27.3723 21.4491 30.7788 21.7551 31.7616C22.5899 34.3709 24.0895 36.5572 26.032 38.4549C26.509 38.9118 27.0193 39.3356 27.5472 39.743C27.7007 39.743 27.7173 39.6069 27.7525 39.5058C27.8198 39.2894 27.8711 39.0685 27.906 38.8447L28.2482 36.3035L28.0585 12.478Z" fill="#6CAC48"/>
<path d="M28.8934 40.4866C28.9276 40.0978 29.1153 39.775 29.3196 39.4533C29.1143 39.3687 28.9618 39.2005 28.8425 39.0129C28.7397 38.8352 28.6546 38.648 28.5884 38.4539C28.3498 37.7423 28.299 36.9957 28.2306 36.2685V35.8281C28.1455 35.8962 28.1279 36.4717 28.1279 36.5572C28.0782 37.3258 27.9756 38.0901 27.821 38.8447C27.7701 39.1499 27.7359 39.4542 27.5472 39.7255C27.5472 39.7595 27.5472 39.7935 27.5639 39.8441C27.8708 40.7423 27.9549 41.6571 28.0067 42.5894V42.9296C28.0067 43.336 27.9901 43.2505 28.3293 43.3866C28.4662 43.4371 28.6187 43.4546 28.7555 43.5557C28.8582 43.5557 28.8748 43.4711 28.8748 43.4031L28.824 42.8441V41.2848C28.8073 41.0126 28.8582 40.7423 28.8924 40.4876L28.8934 40.4866Z" fill="#C2BFBF"/>
</svg>
