<svg width="57" height="56" viewBox="0 0 57 56" fill="none" xmlns="http://www.w3.org/2000/svg">
<path d="M41.3306 36.4764C39.6285 36.4336 38.3092 36.6054 37.2028 37.0779C36.8836 37.2067 36.3729 37.2068 36.3303 37.6149C36.5005 37.7868 36.5218 38.066 36.6708 38.3022C36.9264 38.7317 37.3729 39.3117 37.7772 39.6125C38.224 39.9561 38.671 40.2997 39.1389 40.6004C39.9688 41.1159 40.9052 41.4165 41.7137 41.9321C42.182 42.2326 42.6498 42.6195 43.1179 42.9416C43.352 43.1132 43.5008 43.3927 43.7989 43.5V43.4356C43.6498 43.2422 43.6073 42.9631 43.4584 42.7482C43.2459 42.5334 43.0328 42.3401 42.82 42.1253C42.203 41.2878 41.437 40.5574 40.6072 39.9561C39.9264 39.4835 38.4368 38.8392 38.1603 38.0444C38.1603 38.0444 38.1389 38.0231 38.1177 38.0016C38.5858 37.9586 39.1389 37.7868 39.5859 37.6579C40.3093 37.4644 40.9689 37.5075 41.7137 37.3142C42.054 37.2283 42.3945 37.1209 42.7349 37.0134V36.8202C42.3521 36.4336 42.0754 35.9182 41.6711 35.553C40.586 34.6077 39.3943 33.6843 38.1603 32.9111C37.5006 32.4815 36.6494 32.2022 35.9473 31.8372C35.6921 31.7081 35.2664 31.6438 35.1176 31.429C34.7344 30.9566 34.5216 30.3337 34.2451 29.7752C33.6282 28.5938 33.0323 27.2837 32.5002 26.038C32.1175 25.2003 31.8834 24.3625 31.4152 23.5895C29.2236 19.9381 26.8405 17.7258 23.1808 15.5563C22.3934 15.1054 21.4572 14.912 20.4572 14.6759C19.9254 14.6543 19.3933 14.6114 18.8614 14.5898C18.5209 14.4394 18.1804 14.0314 17.8825 13.8381C16.6699 13.0648 13.5419 11.3896 12.6482 13.6019C12.0737 14.9979 13.4994 16.3725 13.9886 17.0815C14.3506 17.5754 14.8185 18.1338 15.0739 18.6923C15.2229 19.0572 15.2653 19.4441 15.4143 19.8307C15.7549 20.7755 16.0738 21.8281 16.5208 22.7089C16.7549 23.1598 17.0102 23.6323 17.3081 24.0404C17.4783 24.2766 17.7761 24.3841 17.8401 24.7707C17.5423 25.2003 17.5209 25.8447 17.3505 26.3816C16.5846 28.8087 16.8826 31.8157 17.9676 33.5984C18.308 34.1351 19.1166 35.3168 20.2018 34.8656C21.1594 34.4791 20.9466 33.2548 21.223 32.1809C21.2871 31.9228 21.2445 31.7512 21.3721 31.5794V31.6225C21.67 32.2237 21.9678 32.8038 22.2445 33.4051C22.9041 34.4575 24.053 35.553 25.0105 36.2833C25.5213 36.6698 25.9255 37.3357 26.5639 37.572V37.5074H26.5213C26.3936 37.3141 26.2021 37.2283 26.0319 37.0778C25.649 36.6914 25.2233 36.2188 24.9255 35.7892C24.032 34.5862 23.2445 33.2547 22.5424 31.88C22.202 31.2143 21.904 30.484 21.6275 29.8182C21.4996 29.5602 21.4996 29.1738 21.287 29.045C20.9678 29.5175 20.4997 29.9256 20.2656 30.5055C19.8616 31.429 19.8189 32.5674 19.6699 33.7486C19.5848 33.7703 19.6272 33.7486 19.5847 33.7918C18.904 33.6197 18.6699 32.9111 18.4144 32.3096C17.776 30.7847 17.6696 28.3361 18.223 26.5749C18.372 26.1238 19.0104 24.7063 18.755 24.2767C18.6273 23.8686 18.2016 23.6323 17.9676 23.3102C17.6911 22.9021 17.3931 22.3868 17.2017 21.9356C16.691 20.7327 16.4356 19.401 15.8824 18.1982C15.6271 17.6397 15.1804 17.06 14.8185 16.5445C14.4143 15.9646 13.9675 15.5563 13.6483 14.8691C13.542 14.6329 13.3929 14.2462 13.5631 13.9885C13.6057 13.8166 13.6907 13.7523 13.8611 13.7093C14.1377 13.4729 14.9251 13.7737 15.2015 13.9025C15.9888 14.2245 16.6484 14.5255 17.3081 14.9765C17.6059 15.1913 17.9251 15.5994 18.308 15.7068H18.7549C19.4358 15.8571 20.2017 15.7498 20.8401 15.943C21.9679 16.308 22.9891 16.8451 23.9042 17.425C26.6916 19.2077 28.9894 21.7422 30.5428 24.7707C30.7982 25.2645 30.9045 25.7158 31.1386 26.2311C31.5856 27.2837 32.1387 28.3576 32.5854 29.3886C33.0323 30.3979 33.4577 31.429 34.0961 32.2668C34.4153 32.7176 35.6919 32.954 36.2665 33.1903C36.6921 33.3835 37.3517 33.5555 37.7347 33.7917C38.4581 34.2425 39.1815 34.7583 39.8624 35.2521C40.2029 35.5099 41.2667 36.0469 41.3306 36.4764Z" fill="#00546B"/>
<path d="M19.6271 17.8115C19.2655 17.8115 19.0102 17.8547 18.7549 17.919V17.962H18.7974C18.9678 18.3056 19.2655 18.5419 19.4782 18.8425C19.6485 19.1861 19.7974 19.5299 19.9677 19.8736C19.9889 19.852 20.0102 19.8307 20.0102 19.8307C20.3082 19.6157 20.457 19.2722 20.457 18.7566C20.3294 18.6064 20.3081 18.456 20.2017 18.3056C20.0741 18.0907 19.7974 17.9834 19.6271 17.8115Z" fill="#00546B"/>
</svg>
