<svg width="200" height="200" viewBox="0 0 200 200" fill="none" xmlns="http://www.w3.org/2000/svg">
<path fill-rule="evenodd" clip-rule="evenodd" d="M100.03 50.0026C72.5139 50.0026 50.0004 72.5161 50.0004 100.033C50.0004 127.549 72.5139 150.063 100.03 150.063C127.547 150.063 150.06 127.549 150.06 100.033C150.06 72.5161 127.797 50.0026 100.03 50.0026ZM123.044 122.296C122.044 123.797 120.293 124.297 118.792 123.297C107.035 116.042 92.2757 114.541 74.7652 118.544C73.0142 119.044 71.5133 117.793 71.013 116.292C70.5127 114.541 71.7634 113.04 73.2643 112.54C92.2757 108.288 108.786 110.039 121.793 118.043C123.544 118.794 123.795 120.795 123.044 122.296ZM129.048 108.538C127.797 110.289 125.546 111.039 123.795 109.788C110.287 101.534 89.7742 99.032 74.0148 104.035C72.0136 104.535 69.7622 103.535 69.2619 101.534C68.7616 99.5323 69.7622 97.281 71.7634 96.7807C90.0244 91.2774 112.538 94.029 128.047 103.535C129.548 104.285 130.299 106.787 129.048 108.538ZM129.548 94.5293C113.538 85.0236 86.7724 84.023 71.5133 88.7759C69.0118 89.5263 66.5103 88.0254 65.7598 85.7741C65.0094 83.2726 66.5103 80.7711 68.7616 80.0206C86.5223 74.7675 115.79 75.7681 134.301 86.7747C136.552 88.0254 137.303 91.0272 136.052 93.2786C134.801 95.0296 131.799 95.7801 129.548 94.5293Z" fill="#10BC4C"/>
</svg>
