<svg width="200" height="200" viewBox="0 0 200 200" fill="none" xmlns="http://www.w3.org/2000/svg">
<path d="M47.2587 144.165H65.7876V99.1662L39.3177 79.3138V136.224C39.3177 140.618 42.8779 144.165 47.2587 144.165Z" fill="#4285F4"/>
<path d="M129.315 144.165H147.844C152.238 144.165 155.785 140.605 155.785 136.224V79.3138L129.315 99.1662" fill="#34A853"/>
<path d="M129.315 64.7559V99.1667L155.785 79.3143V68.7263C155.785 58.906 144.575 53.3076 136.727 59.1972" fill="#FBBC04"/>
<path d="M65.7876 99.1662V64.7553L97.5515 88.5782L129.315 64.7553V99.1662L97.5515 122.989" fill="#EA4335"/>
<path d="M39.3177 68.7263V79.3143L65.7876 99.1667V64.7559L58.376 59.1972C50.5145 53.3076 39.3177 58.906 39.3177 68.7263Z" fill="#C5221F"/>
</svg>
