<svg width="200" height="200" viewBox="0 0 200 200" fill="none" xmlns="http://www.w3.org/2000/svg">
<path d="M81.793 99.9998C81.793 89.9472 89.945 81.7957 100.004 81.7957C110.062 81.7957 118.219 89.9472 118.219 99.9998C118.219 110.052 110.062 118.204 100.004 118.204C89.945 118.204 81.793 110.052 81.793 99.9998ZM71.9463 99.9998C71.9463 115.487 84.5076 128.04 100.004 128.04C115.5 128.04 128.061 115.487 128.061 99.9998C128.061 84.513 115.5 71.9593 100.004 71.9593C84.5076 71.9593 71.9463 84.513 71.9463 99.9998ZM122.615 70.8475C122.614 72.1436 122.998 73.4107 123.718 74.4886C124.438 75.5665 125.462 76.4068 126.66 76.9033C127.858 77.3997 129.176 77.53 130.448 77.2777C131.72 77.0253 132.889 76.4017 133.806 75.4856C134.724 74.5695 135.349 73.4022 135.602 72.1311C135.856 70.8601 135.726 69.5424 135.23 68.3448C134.735 67.1472 133.895 66.1235 132.817 65.403C131.739 64.6825 130.471 64.2977 129.174 64.2972H129.172C127.433 64.298 125.767 64.9883 124.537 66.2165C123.308 67.4446 122.616 69.1103 122.615 70.8475ZM77.9288 144.449C72.6016 144.207 69.7061 143.32 67.7818 142.571C65.2308 141.578 63.4106 140.396 61.4968 138.486C59.5831 136.576 58.3985 134.759 57.4097 132.209C56.6596 130.287 55.7722 127.392 55.5301 122.068C55.2652 116.312 55.2123 114.583 55.2123 100C55.2123 85.4173 55.2696 83.693 55.5301 77.9321C55.7727 72.6081 56.6666 69.7191 57.4097 67.7912C58.4029 65.2417 59.5857 63.4226 61.4968 61.51C63.408 59.5974 65.2264 58.4135 67.7818 57.4253C69.7052 56.6757 72.6016 55.7888 77.9288 55.5468C83.6884 55.2821 85.4185 55.2292 100.004 55.2292C114.589 55.2292 116.321 55.2864 122.085 55.5468C127.412 55.7893 130.303 56.6826 132.232 57.4253C134.783 58.4135 136.603 59.6 138.517 61.51C140.431 63.42 141.611 65.2417 142.604 67.7912C143.354 69.7134 144.242 72.6081 144.484 77.9321C144.749 83.693 144.802 85.4173 144.802 100C144.802 114.583 144.749 116.308 144.484 122.068C144.241 127.392 143.349 130.286 142.604 132.209C141.611 134.759 140.428 136.578 138.517 138.486C136.606 140.394 134.783 141.578 132.232 142.571C130.309 143.321 127.412 144.207 122.085 144.449C116.325 144.714 114.595 144.767 100.004 144.767C85.412 144.767 83.6866 144.714 77.9288 144.449ZM77.4764 45.7226C71.6596 45.9874 67.6848 46.9091 64.2136 48.259C60.6187 49.6531 57.5754 51.5233 54.5343 54.5577C51.4932 57.5922 49.6267 60.6384 48.2318 64.2312C46.8811 67.7025 45.9588 71.6727 45.6939 77.4861C45.4246 83.3086 45.363 85.1701 45.363 99.9998C45.363 114.83 45.4246 116.691 45.6939 122.514C45.9588 128.327 46.8811 132.297 48.2318 135.768C49.6267 139.359 51.4937 142.409 54.5343 145.442C57.575 148.475 60.6187 150.343 64.2136 151.741C67.6913 153.091 71.6596 154.012 77.4764 154.277C83.3055 154.542 85.165 154.608 100.004 154.608C114.842 154.608 116.705 154.546 122.531 154.277C128.348 154.012 132.32 153.091 135.794 151.741C139.386 150.343 142.432 148.476 145.473 145.442C148.514 142.407 150.377 139.359 151.775 135.768C153.126 132.297 154.053 128.327 154.313 122.514C154.578 116.687 154.64 114.83 154.64 99.9998C154.64 85.1701 154.578 83.3086 154.313 77.4861C154.049 71.6723 153.126 67.7003 151.775 64.2312C150.377 60.6406 148.509 57.597 145.473 54.5577C142.437 51.5185 139.386 49.6531 135.798 48.259C132.32 46.9091 128.348 45.983 122.535 45.7226C116.709 45.4579 114.847 45.3919 100.008 45.3919C85.1694 45.3919 83.3055 45.4535 77.4764 45.7226Z" fill="url(#paint0_radial_13_5644)"/>
<path d="M81.793 99.9998C81.793 89.9472 89.945 81.7957 100.004 81.7957C110.062 81.7957 118.219 89.9472 118.219 99.9998C118.219 110.052 110.062 118.204 100.004 118.204C89.945 118.204 81.793 110.052 81.793 99.9998ZM71.9463 99.9998C71.9463 115.487 84.5076 128.04 100.004 128.04C115.5 128.04 128.061 115.487 128.061 99.9998C128.061 84.513 115.5 71.9593 100.004 71.9593C84.5076 71.9593 71.9463 84.513 71.9463 99.9998ZM122.615 70.8475C122.614 72.1436 122.998 73.4107 123.718 74.4886C124.438 75.5665 125.462 76.4068 126.66 76.9033C127.858 77.3997 129.176 77.53 130.448 77.2777C131.72 77.0253 132.889 76.4017 133.806 75.4856C134.724 74.5695 135.349 73.4022 135.602 72.1311C135.856 70.8601 135.726 69.5424 135.23 68.3448C134.735 67.1472 133.895 66.1235 132.817 65.403C131.739 64.6825 130.471 64.2977 129.174 64.2972H129.172C127.433 64.298 125.767 64.9883 124.537 66.2165C123.308 67.4446 122.616 69.1103 122.615 70.8475ZM77.9288 144.449C72.6016 144.207 69.7061 143.32 67.7818 142.571C65.2308 141.578 63.4106 140.396 61.4968 138.486C59.5831 136.576 58.3985 134.759 57.4097 132.209C56.6596 130.287 55.7722 127.392 55.5301 122.068C55.2652 116.312 55.2123 114.583 55.2123 100C55.2123 85.4173 55.2696 83.693 55.5301 77.9321C55.7727 72.6081 56.6666 69.7191 57.4097 67.7912C58.4029 65.2417 59.5857 63.4226 61.4968 61.51C63.408 59.5974 65.2264 58.4135 67.7818 57.4253C69.7052 56.6757 72.6016 55.7888 77.9288 55.5468C83.6884 55.2821 85.4185 55.2292 100.004 55.2292C114.589 55.2292 116.321 55.2864 122.085 55.5468C127.412 55.7893 130.303 56.6826 132.232 57.4253C134.783 58.4135 136.603 59.6 138.517 61.51C140.431 63.42 141.611 65.2417 142.604 67.7912C143.354 69.7134 144.242 72.6081 144.484 77.9321C144.749 83.693 144.802 85.4173 144.802 100C144.802 114.583 144.749 116.308 144.484 122.068C144.241 127.392 143.349 130.286 142.604 132.209C141.611 134.759 140.428 136.578 138.517 138.486C136.606 140.394 134.783 141.578 132.232 142.571C130.309 143.321 127.412 144.207 122.085 144.449C116.325 144.714 114.595 144.767 100.004 144.767C85.412 144.767 83.6866 144.714 77.9288 144.449ZM77.4764 45.7226C71.6596 45.9874 67.6848 46.9091 64.2136 48.259C60.6187 49.6531 57.5754 51.5233 54.5343 54.5577C51.4932 57.5922 49.6267 60.6384 48.2318 64.2312C46.8811 67.7025 45.9588 71.6727 45.6939 77.4861C45.4246 83.3086 45.363 85.1701 45.363 99.9998C45.363 114.83 45.4246 116.691 45.6939 122.514C45.9588 128.327 46.8811 132.297 48.2318 135.768C49.6267 139.359 51.4937 142.409 54.5343 145.442C57.575 148.475 60.6187 150.343 64.2136 151.741C67.6913 153.091 71.6596 154.012 77.4764 154.277C83.3055 154.542 85.165 154.608 100.004 154.608C114.842 154.608 116.705 154.546 122.531 154.277C128.348 154.012 132.32 153.091 135.794 151.741C139.386 150.343 142.432 148.476 145.473 145.442C148.514 142.407 150.377 139.359 151.775 135.768C153.126 132.297 154.053 128.327 154.313 122.514C154.578 116.687 154.64 114.83 154.64 99.9998C154.64 85.1701 154.578 83.3086 154.313 77.4861C154.049 71.6723 153.126 67.7003 151.775 64.2312C150.377 60.6406 148.509 57.597 145.473 54.5577C142.437 51.5185 139.386 49.6531 135.798 48.259C132.32 46.9091 128.348 45.983 122.535 45.7226C116.709 45.4579 114.847 45.3919 100.008 45.3919C85.1694 45.3919 83.3055 45.4535 77.4764 45.7226Z" fill="url(#paint1_radial_13_5644)"/>
<defs>
<radialGradient id="paint0_radial_13_5644" cx="0" cy="0" r="1" gradientUnits="userSpaceOnUse" gradientTransform="translate(59.8817 155.124) scale(142.658 142.572)">
<stop offset="0.09" stop-color="#FA8F21"/>
<stop offset="0.78" stop-color="#D82D7E"/>
</radialGradient>
<radialGradient id="paint1_radial_13_5644" cx="0" cy="0" r="1" gradientUnits="userSpaceOnUse" gradientTransform="translate(111.637 160.017) scale(112.434 112.367)">
<stop offset="0.64" stop-color="#8C3AAA" stop-opacity="0"/>
<stop offset="1" stop-color="#8C3AAA"/>
</radialGradient>
</defs>
</svg>
