<svg width="200" height="200" viewBox="0 0 200 200" fill="none" xmlns="http://www.w3.org/2000/svg">
<path d="M50.0004 146.001L57.1752 119.347C51.3889 108.964 49.5505 96.848 51.9974 85.2221C54.4443 73.5962 61.0124 63.2404 70.4963 56.055C79.9802 48.8696 91.7438 45.3365 103.629 46.1041C115.513 46.8718 126.722 51.8886 135.197 60.234C143.673 68.5794 148.847 79.6936 149.771 91.5372C150.694 103.381 147.304 115.159 140.224 124.711C133.144 134.263 122.847 140.948 111.224 143.539C99.6014 146.13 87.4316 144.453 76.9481 138.816L50.0004 146.001ZM78.2475 128.842L79.9141 129.828C87.5075 134.318 96.3765 136.175 105.139 135.112C113.901 134.049 122.065 130.124 128.358 123.95C134.651 117.775 138.719 109.698 139.929 100.976C141.139 92.2549 139.422 83.3791 135.047 75.7323C130.672 68.0854 123.883 62.097 115.739 58.7003C107.596 55.3035 98.5541 54.6892 90.0239 56.9531C81.4936 59.2171 73.9537 64.232 68.5792 71.2165C63.2047 78.2009 60.2975 86.7626 60.3106 95.5672C60.3034 102.868 62.3276 110.027 66.1577 116.248L67.2029 117.967L63.1918 132.843L78.2475 128.842Z" fill="#00D95F"/>
<path fill-rule="evenodd" clip-rule="evenodd" d="M118.697 102.411C117.72 101.625 116.576 101.072 115.352 100.794C114.128 100.515 112.857 100.519 111.635 100.805C109.799 101.566 108.612 104.44 107.426 105.877C107.176 106.221 106.808 106.463 106.392 106.556C105.976 106.65 105.54 106.588 105.166 106.384C98.4443 103.758 92.81 98.9421 89.1784 92.7189C88.8686 92.3305 88.722 91.8375 88.7694 91.3435C88.8168 90.8495 89.0546 90.3931 89.4326 90.0704C90.7558 88.7638 91.7273 87.1455 92.2573 85.3651C92.375 83.4014 91.9239 81.4453 90.9579 79.7301C90.2111 77.3255 88.7899 75.1844 86.8621 73.5597C85.8678 73.1137 84.7653 72.9641 83.6877 73.1291C82.6101 73.2941 81.6034 73.7665 80.789 74.4895C79.3751 75.7062 78.2529 77.2238 77.5049 78.9304C76.757 80.6371 76.4023 82.4894 76.4671 84.3508C76.4715 85.3962 76.6043 86.437 76.8626 87.4501C77.5185 89.8842 78.5272 92.2097 79.8568 94.3531C80.8161 95.9949 81.8627 97.5844 82.9922 99.1147C86.6631 104.141 91.2774 108.409 96.5791 111.681C99.2396 113.344 102.083 114.696 105.053 115.71C108.139 117.105 111.545 117.641 114.911 117.26C116.829 116.97 118.647 116.215 120.203 115.06C121.759 113.906 123.008 112.387 123.838 110.638C124.325 109.582 124.473 108.401 124.261 107.257C123.753 104.919 120.617 103.538 118.697 102.411Z" fill="#00D95F"/>
</svg>
