<svg width="469" height="45" viewBox="0 0 469 45" fill="none" xmlns="http://www.w3.org/2000/svg">
<path d="M22.371 26.9853C73.4696 26.9853 123.266 13.6142 174.408 13.6142C202.646 13.6142 230.884 13.6142 259.122 13.6142C325.421 13.6142 391.413 16.957 457.864 16.957C464.285 16.957 467.801 16.957 467.801 16.957C446.28 16.957 424.958 15.6238 403.458 14.357C372.186 12.5145 341.383 16.957 310.298 16.957C257.093 16.957 203.91 20.2998 150.932 20.2998C123.441 20.2998 96.8718 16.957 69.8206 16.957C57.0553 16.957 44.6517 11.9193 31.8113 14.357C24.7755 15.6928 18.2943 16.957 11.1918 16.957C-11.341 16.957 21.6556 23.6425 29.2028 23.6425C68.0081 23.6425 106.086 13.6142 144.846 13.6142C176.275 13.6142 207.24 19.1409 238.503 20.2998C311.078 22.99 383.644 33.6708 456.125 33.6708M456.125 33.6708C520.04 33.6708 328.503 20.2998 264.588 20.2998C231.707 20.2998 199.212 23.6425 166.459 23.6425C134.981 23.6425 96.8905 16.1053 66.0942 25.3139C45.0649 31.602 2 33.6708 2 33.6708C2 33.6708 23.8616 33.6708 34.7924 33.6708C45.2263 33.6708 55.6603 33.6708 66.0942 33.6708C76.5319 33.6708 94.0997 28.431 104.104 34.4137C117.029 42.1436 137.044 37.0136 151.056 37.0136C173.291 37.0136 195.525 37.0136 217.759 37.0136C263.263 37.0136 308.766 37.0136 354.27 37.0136C379.567 37.0136 404.764 40.3564 430.164 40.3564C438.445 40.3564 446.726 40.3564 455.007 40.3564C459.358 40.3564 470.914 44.5087 468.05 39.6135C463.963 32.6303 444.24 33.2537 438.238 31.0709C416.267 23.0808 394.885 23.6425 372.405 23.6425C286.863 23.6425 201.321 23.6425 115.78 23.6425C87.1691 23.6425 58.5586 23.6425 29.9481 23.6425C3.58451 23.6425 32.9358 23.6425 42.3694 23.6425C73.7955 23.6425 105.222 23.6425 136.648 23.6425C174.905 23.6425 213.163 23.6425 251.421 23.6425C291.829 23.6425 332.095 30.3281 372.405 30.3281C393.137 30.3281 413.8 33.6708 434.636 33.6708C441.576 33.6708 455.382 37.2808 461.094 31.0709C464.015 27.8939 469.734 31.5559 461.094 27.7281C456.367 25.6342 450.352 26.9853 445.443 26.9853C427.375 26.9853 409.815 23.6425 391.534 23.6425C325.084 23.6425 258.945 13.6142 192.295 13.6142C166.639 13.6142 142.933 20.4469 117.767 23.4568C91.7854 26.5644 67.6086 25.1954 41.7484 32.928C33.4851 35.3989 21.0149 36.1125 13.4277 31.0709C7.97692 27.449 14.7122 31.28 18.3962 29.5852C26.1663 26.0108 35.3831 24.1899 43.4873 23.8282C121.221 20.359 201.581 8.51276 278.996 21.9711C308.56 27.1107 339.159 23.6425 368.927 23.6425C389.006 23.6425 409.675 29.7621 429.792 32.928C438.494 34.2976 447.382 33.6708 456.125 33.6708ZM456.125 33.6708C461.863 33.6708 467.383 33.6708 458.237 33.6708C445.797 33.6708 454.928 32.9743 461.715 33.8566M444.449 26.9853C434.181 26.9853 423.912 26.9853 413.644 26.9853C403.512 26.9853 414.123 26.9853 418.24 26.9853M443.952 20.2998C439.255 20.2998 429.285 15.049 439.729 13.7999M452.895 10.2714C451.875 10.2714 441.756 11.0697 446.436 13.6142M453.268 36.8279C452.435 37.1048 465.71 37.0136 462.833 37.0136C453.066 37.0136 443.48 38.2627 433.767 39.6135C422.524 41.1772 427.12 40.8909 435.754 39.985C445.654 38.9462 458.47 37.8609 467.553 31.0709C473.813 26.391 453.56 30.3281 446.561 30.3281C438.758 30.3281 419.198 30.3281 438.238 30.3281C439.052 30.3281 449.618 30.3281 442.834 30.3281C436.83 30.3281 418.822 30.5773 424.823 30.3281C432.635 30.0036 457.409 24.0734 435.506 23.6425C430.496 23.544 415.466 23.6425 420.476 23.6425C428.881 23.6425 437.286 23.6425 445.691 23.6425C455.229 23.6425 438.586 23.6425 437.741 23.6425C428.011 23.6425 418.281 23.6425 408.551 23.6425C408.299 23.6425 424.156 16.957 415.756 16.957C401.27 16.957 432.904 14.0135 420.352 13.6142C400.511 12.9831 424.797 12.3756 431.779 9.5286C434.761 8.31265 407.1 9.11733 410.663 10.0857C424.477 13.841 426.808 0.863429 411.284 8.60005C408.633 9.92109 438.523 3.5859 425.568 3.5859C417.611 3.5859 396.367 15.9121 410.166 6.74296C423.474 -2.10011 391.114 6.69959 386.069 12.8714C382.598 17.1165 395.087 13.0423 399.484 14.357C410.805 17.7423 420.642 20.2998 432.152 20.2998C439.977 20.2998 455.628 20.2998 455.628 20.2998C455.628 20.2998 434.26 20.0912 423.581 20.4855C402.341 21.2695 381.45 27.218 360.232 28.8424C329.553 31.1911 298.774 30.3281 268.066 30.3281C220.602 30.3281 363.919 39.3876 410.414 25.1282C418.56 22.6299 405.566 25.0672 404.576 25.3139C395.715 27.5219 386.83 26.9853 377.87 26.9853C339.357 26.9853 223.838 23.6425 262.352 23.6425C301.561 23.6425 342.015 18.8201 381.1 24.3854C395.249 26.4 409.87 26.429 423.829 30.3281C435.441 33.571 470.794 37.0136 458.982 37.0136C434.139 37.0136 409.296 37.0136 384.454 37.0136C368.645 37.0136 351.833 39.5469 336.383 34.4137C322.491 29.7982 297.062 43.4213 285.704 31.0709C282.593 27.6885 273.799 30.3281 270.053 30.3281C257.59 30.3281 245.127 30.3281 232.665 30.3281C218.215 30.3281 203.764 30.3281 189.314 30.3281C176.147 30.3281 215.647 30.3281 228.814 30.3281C252.647 30.3281 231.527 30.3281 220.119 30.3281C175.28 30.3281 132.334 37.0136 87.459 37.0136C81.4735 37.0136 57.6892 37.0136 78.0187 37.0136C97.3132 37.0136 116.608 37.0136 135.902 37.0136C147.578 37.0136 159.254 37.0136 170.931 37.0136C181.364 37.0136 191.798 37.0136 202.232 37.0136C224.523 37.0136 184.833 37.0136 179.501 37.0136C152.588 37.0136 125.675 37.0136 98.7624 37.0136C88.8667 37.0136 78.971 37.0136 69.0754 37.0136C61.7468 37.0136 83.7326 37.0136 91.0612 37.0136C106.192 37.0136 121.553 38.1342 136.648 36.2708C142.082 35.5999 157.084 35.0361 152.547 30.5138C149.444 27.4208 137.621 30.3281 134.412 30.3281C117.353 30.3281 100.294 30.3281 83.2357 30.3281C81.5216 30.3281 62.527 30.3281 66.9637 30.3281C75.9485 30.3281 84.9333 30.3281 93.9181 30.3281C96.8696 30.3281 125.517 26.9853 112.302 26.9853C95.6571 26.9853 79.0124 26.9853 62.3678 26.9853C51.1886 26.9853 107.085 26.9853 95.9055 26.9853C81.5381 26.9853 67.1707 26.9853 52.8034 26.9853C40.6718 26.9853 101.329 26.9853 89.198 26.9853C65.3469 26.9853 41.7147 29.1412 17.8993 30.3281C13.5129 30.5467 26.6771 30.3281 31.066 30.3281C39.8711 30.3281 32.6718 30.3281 28.0849 30.3281C12.1495 30.3281 26.4769 33.6708 33.5503 33.6708C47.6652 33.6708 25.7086 33.7543 26.3459 35.3422C28.8669 41.624 45.903 37.0136 41.0031 37.0136C36.5698 37.0136 15.838 37.0136 30.8176 37.0136C35.8619 37.0136 54.4828 37.0136 53.176 37.0136C48.1265 37.0136 24.265 37.0136 41.7484 37.0136C53.6042 37.0136 88.1075 41.6127 77.2735 34.4137C65.8306 26.8101 43.1266 33.6708 31.066 33.6708C22.3529 33.6708 15.8773 29.4705 7.83804 26.7996C-2.61495 23.3267 7.72395 20.2998 12.9308 20.2998C28.4161 20.2998 74.0773 27.621 59.3867 20.2998C53.9468 17.5887 30.2729 22.5567 27.0912 16.2141C26.3835 14.8035 44.8986 13.439 45.1021 13.4285C49.085 13.2232 69.3123 9.00798 68.3301 8.60005C52.8622 2.17622 33.4219 6.92867 17.4025 6.92867C7.4654 6.92867 37.2767 6.92867 47.2138 6.92867C51.9073 6.92867 37.7166 6.81422 33.1776 8.60005C29.2563 10.1429 47.4285 10.2714 49.4496 10.2714C72.8846 10.2714 96.3196 10.2714 119.755 10.2714C121.908 10.2714 115.448 10.2714 113.295 10.2714C109.569 10.2714 120.748 10.2714 124.475 10.2714C133.459 10.2714 167.676 10.2714 140.747 10.2714C137.289 10.2714 127.947 10.2714 137.393 10.2714C150.435 10.2714 163.478 10.2714 176.52 10.2714C199.555 10.2714 159.935 8.86348 170.185 11.0143C176.639 12.3686 183.037 13.6142 189.563 13.6142C192.949 13.6142 188.443 13.6142 188.569 13.6142C211.02 13.6142 233.46 13.7471 255.893 15.2856C262.463 15.7362 269.426 15.92 276.015 16.957C276.956 17.105 273.758 17.3152 273.407 18.6284C273.046 19.9785 295.279 20.2998 296.262 20.2998C307.158 20.2998 317.645 23.6425 328.558 23.6425C355.631 23.6425 382.76 26.9853 409.669 26.9853C421.57 26.9853 433.606 30.3281 446.436 30.3281" stroke="black" stroke-width="5" stroke-linecap="round"/>
</svg>
