<svg width="200" height="228" viewBox="0 0 200 228" fill="none" xmlns="http://www.w3.org/2000/svg">
<path d="M100 0L100.523 102.491L110.453 0.623741L101.564 102.615L120.791 2.48814L102.588 102.863L130.902 5.57278L103.584 103.232L140.674 9.84383L104.54 103.716L150 15.2545L105.446 104.312L158.779 21.7456L106.293 105.013L166.913 29.2459L107.071 105.81L174.314 37.6732L107.771 106.696L180.902 46.9353L108.387 107.66L186.603 56.9307L108.91 108.692L191.355 67.5498L109.336 109.781L195.106 78.6763L109.659 110.914L197.815 90.1883L109.877 112.08L199.452 101.96L109.986 113.265L200 113.861L109.986 114.457L199.452 125.763L109.877 115.643L197.815 137.534L109.659 116.808L195.106 149.046L109.336 117.942L191.355 160.173L108.91 119.031L186.603 170.792L108.387 120.063L180.902 180.787L107.771 121.027L174.314 190.05L107.071 121.913L166.913 198.477L106.293 122.71L158.779 205.977L105.446 123.411L150 212.468L104.54 124.007L140.674 217.879L103.584 124.491L130.902 222.15L102.588 124.86L120.791 225.235L101.564 125.107L110.453 227.099L100.523 125.232L100 227.723L99.4766 125.232L89.5472 227.099L98.4357 125.107L79.2088 225.235L97.4118 124.86L69.0983 222.15L96.4163 124.491L59.3263 217.879L95.4601 124.007L50 212.468L94.5536 123.411L41.2215 205.977L93.7068 122.71L33.0869 198.477L92.9289 121.913L25.6855 190.05L92.2285 121.027L19.0983 180.787L91.6133 120.063L13.3975 170.792L91.0899 119.031L8.64545 160.173L90.6642 117.942L4.89435 149.046L90.3407 116.808L2.18524 137.534L90.1231 115.643L0.547813 125.763L90.0137 114.457L0 113.861L90.0137 113.265L0.547813 101.96L90.1231 112.08L2.18524 90.1883L90.3407 110.914L4.89435 78.6763L90.6642 109.781L8.64545 67.5498L91.0899 108.692L13.3975 56.9307L91.6133 107.66L19.0983 46.9353L92.2285 106.696L25.6855 37.6732L92.9289 105.81L33.0869 29.2459L93.7068 105.013L41.2215 21.7456L94.5536 104.312L50 15.2545L95.4601 103.716L59.3263 9.84383L96.4163 103.232L69.0983 5.57278L97.4118 102.863L79.2088 2.48814L98.4357 102.615L89.5472 0.623741L99.4766 102.491L100 0Z" fill="#1B3E51"/>
</svg>
