<svg width="788" height="45" viewBox="0 0 788 45" fill="none" xmlns="http://www.w3.org/2000/svg">
<path d="M35.3342 26.9853C121.458 26.9853 205.387 13.6142 291.585 13.6142C339.178 13.6142 386.771 13.6142 434.365 13.6142C546.107 13.6142 657.333 16.957 769.332 16.957C780.155 16.957 786.081 16.957 786.081 16.957C749.807 16.957 713.872 15.6238 677.635 14.3571C624.927 12.5145 573.011 16.957 520.619 16.957C430.944 16.957 341.307 20.2998 252.016 20.2998C205.682 20.2998 160.901 16.957 115.308 16.957C93.7925 16.957 72.887 11.9193 51.2452 14.3571C39.3868 15.6928 28.4632 16.957 16.4923 16.957C-21.4854 16.957 34.1285 23.6425 46.8487 23.6425C112.253 23.6425 176.431 13.6142 241.758 13.6142C294.73 13.6142 346.92 19.1409 399.612 20.2998C521.933 22.99 644.239 33.6708 766.401 33.6708M766.401 33.6708C874.127 33.6708 551.302 20.2998 443.576 20.2998C388.158 20.2998 333.39 23.6425 278.186 23.6425C225.132 23.6425 160.932 16.1053 109.027 25.3139C73.5833 31.602 1 33.6708 1 33.6708C1 33.6708 37.8465 33.6708 56.2697 33.6708C73.8555 33.6708 91.4413 33.6708 109.027 33.6708C126.619 33.6708 156.229 28.431 173.09 34.4137C194.875 42.1436 228.608 37.0136 252.226 37.0136C289.7 37.0136 327.175 37.0136 364.649 37.0136C441.343 37.0136 518.037 37.0136 594.73 37.0136C637.367 37.0136 679.836 40.3564 722.646 40.3564C736.603 40.3564 750.56 40.3564 764.517 40.3564C771.85 40.3564 791.328 44.5087 786.5 39.6136C779.611 32.6303 746.371 33.2537 736.254 31.0709C699.224 23.0808 663.184 23.6425 625.296 23.6425C481.12 23.6425 336.945 23.6425 192.769 23.6425C144.548 23.6425 96.3263 23.6425 48.1048 23.6425C3.6706 23.6425 53.1406 23.6425 69.0403 23.6425C122.007 23.6425 174.974 23.6425 227.941 23.6425C292.422 23.6425 356.903 23.6425 421.385 23.6425C489.49 23.6425 557.357 30.3281 625.296 30.3281C660.238 30.3281 695.064 33.6708 730.183 33.6708C741.881 33.6708 765.15 37.2808 774.776 31.0709C779.7 27.8939 789.339 31.5559 774.776 27.7281C766.809 25.6343 756.671 26.9853 748.397 26.9853C717.945 26.9853 688.348 23.6425 657.537 23.6425C545.54 23.6425 434.066 13.6142 321.732 13.6142C278.49 13.6142 238.534 20.4469 196.119 23.4568C152.328 26.5644 111.579 25.1954 67.9936 32.928C54.0663 35.3989 33.0485 36.1125 20.2606 31.0709C11.0738 27.449 22.4257 31.28 28.6348 29.5852C41.731 26.0108 57.2653 24.1899 70.9245 23.8282C201.94 20.359 337.382 8.51276 467.861 21.9711C517.69 27.1107 569.262 23.6425 619.434 23.6425C653.276 23.6425 688.113 29.7621 722.018 32.928C736.686 34.2976 751.666 33.6708 766.401 33.6708ZM766.401 33.6708C776.073 33.6708 785.377 33.6708 769.96 33.6708C748.994 33.6708 764.384 32.9743 775.822 33.8566M746.722 26.9853C729.415 26.9853 712.109 26.9853 694.802 26.9853C677.726 26.9853 695.61 26.9853 702.548 26.9853M745.885 20.2998C737.968 20.2998 721.165 15.049 738.767 13.7999M760.958 10.2714C759.239 10.2714 742.183 11.0697 750.072 13.6142M761.586 36.8279C760.182 37.1048 782.556 37.0136 777.707 37.0136C761.246 37.0136 745.088 38.2627 728.718 39.6136C709.768 41.1772 717.515 40.8909 732.067 39.985C748.754 38.9462 770.353 37.8609 785.662 31.0709C796.214 26.391 762.078 30.3281 750.281 30.3281C737.131 30.3281 704.163 30.3281 736.254 30.3281C737.625 30.3281 755.434 30.3281 744 30.3281C733.882 30.3281 703.529 30.5773 713.644 30.3281C726.811 30.0036 768.565 24.0734 731.648 23.6425C723.205 23.544 697.873 23.6425 706.317 23.6425C720.483 23.6425 734.649 23.6425 748.816 23.6425C764.891 23.6425 736.84 23.6425 735.417 23.6425C719.017 23.6425 702.618 23.6425 686.218 23.6425C685.794 23.6425 712.519 16.957 698.361 16.957C673.947 16.957 727.264 14.0135 706.107 13.6142C672.668 12.9831 713.6 12.3756 725.368 9.5286C730.394 8.31265 683.773 9.11733 689.778 10.0857C713.061 13.841 716.989 0.863429 690.824 8.60005C686.357 9.92109 736.734 3.5859 714.9 3.5859C701.488 3.5859 665.683 15.9121 688.94 6.74296C711.37 -2.10011 656.829 6.69959 648.325 12.8714C642.476 17.1165 663.525 13.0423 670.936 14.3571C690.017 17.7423 706.597 20.2998 725.996 20.2998C739.185 20.2998 765.564 20.2998 765.564 20.2998C765.564 20.2998 729.55 20.0912 711.55 20.4855C675.752 21.2696 640.542 27.218 604.779 28.8424C553.071 31.1911 501.196 30.3281 449.438 30.3281C369.441 30.3281 610.993 39.3876 689.359 25.1282C703.089 22.6299 681.188 25.0672 679.519 25.3139C664.584 27.5219 649.609 26.9853 634.508 26.9853C569.596 26.9853 374.896 23.6425 439.808 23.6425C505.893 23.6425 574.075 18.8201 639.951 24.3854C663.799 26.4 688.441 26.429 711.969 30.3281C731.539 33.571 791.125 37.0136 771.217 37.0136C729.346 37.0136 687.475 37.0136 645.604 37.0136C618.96 37.0136 590.624 39.5469 564.583 34.4137C541.169 29.7982 498.31 43.4213 479.167 31.0709C473.923 27.6885 459.101 30.3281 452.788 30.3281C431.783 30.3281 410.777 30.3281 389.772 30.3281C365.417 30.3281 341.062 30.3281 316.707 30.3281C294.516 30.3281 361.09 30.3281 383.282 30.3281C423.45 30.3281 387.855 30.3281 368.627 30.3281C293.053 30.3281 220.671 37.0136 145.036 37.0136C134.948 37.0136 94.861 37.0136 129.125 37.0136C161.645 37.0136 194.165 37.0136 226.685 37.0136C246.364 37.0136 266.043 37.0136 285.723 37.0136C303.308 37.0136 320.894 37.0136 338.48 37.0136C376.049 37.0136 309.155 37.0136 300.168 37.0136C254.808 37.0136 209.448 37.0136 164.087 37.0136C147.409 37.0136 130.73 37.0136 114.052 37.0136C101.7 37.0136 138.755 37.0136 151.107 37.0136C176.61 37.0136 202.499 38.1342 227.941 36.2708C237.1 35.5999 262.385 35.0361 254.738 30.5138C249.508 27.4208 229.582 30.3281 224.172 30.3281C195.421 30.3281 166.669 30.3281 137.918 30.3281C135.029 30.3281 103.015 30.3281 110.493 30.3281C125.636 30.3281 140.779 30.3281 155.923 30.3281C160.897 30.3281 209.18 26.9853 186.907 26.9853C158.854 26.9853 130.8 26.9853 102.746 26.9853C83.9045 26.9853 178.114 26.9853 159.272 26.9853C135.057 26.9853 110.842 26.9853 86.6261 26.9853C66.1792 26.9853 168.414 26.9853 147.967 26.9853C107.768 26.9853 67.9368 29.1412 27.7974 30.3281C20.4043 30.5467 42.5918 30.3281 49.989 30.3281C64.8296 30.3281 52.6956 30.3281 44.9645 30.3281C18.1064 30.3281 42.2544 33.6708 54.1761 33.6708C77.966 33.6708 40.9595 33.7544 42.0336 35.3422C46.2825 41.624 74.996 37.0136 66.7374 37.0136C59.2653 37.0136 24.3232 37.0136 49.5703 37.0136C58.0723 37.0136 89.4568 37.0136 87.2542 37.0136C78.7436 37.0136 38.5263 37.0136 67.9936 37.0136C87.976 37.0136 146.129 41.6127 127.869 34.4137C108.583 26.8101 70.3165 33.6708 49.989 33.6708C35.3036 33.6708 24.3893 29.4705 10.8397 26.7996C-6.77823 23.3267 10.6474 20.2998 19.4232 20.2998C45.5228 20.2998 122.482 27.621 97.7219 20.2998C88.5534 17.5887 48.6523 22.5567 43.2897 16.2141C42.097 14.8035 73.3031 13.439 73.6461 13.4285C80.359 13.2232 114.451 9.00798 112.796 8.60005C86.7252 2.17622 53.9597 6.92867 26.96 6.92867C10.2116 6.92867 60.4568 6.92867 77.2052 6.92867C85.1158 6.92867 61.1983 6.81422 53.5481 8.60005C46.939 10.1429 77.5672 10.2714 80.9736 10.2714C120.472 10.2714 159.97 10.2714 199.468 10.2714C203.097 10.2714 192.211 10.2714 188.582 10.2714C182.301 10.2714 201.143 10.2714 207.424 10.2714C222.566 10.2714 280.237 10.2714 234.849 10.2714C229.022 10.2714 213.276 10.2714 229.197 10.2714C251.179 10.2714 273.161 10.2714 295.144 10.2714C333.967 10.2714 267.191 8.86348 284.466 11.0143C295.344 12.3686 306.127 13.6142 317.126 13.6142C322.834 13.6142 315.24 13.6142 315.451 13.6142C353.29 13.6142 391.113 13.7471 428.921 15.2856C439.995 15.7362 451.732 15.92 462.837 16.957C464.422 17.105 459.033 17.3152 458.44 18.6284C457.832 19.9785 495.304 20.2998 496.962 20.2998C515.327 20.2998 533.001 23.6425 551.394 23.6425C597.025 23.6425 642.749 26.9853 688.103 26.9853C708.16 26.9853 728.447 30.3281 750.072 30.3281" stroke="black" stroke-width="5" stroke-linecap="round"/>
</svg>
