<svg width="167" height="166" viewBox="0 0 167 166" fill="none" xmlns="http://www.w3.org/2000/svg">
<path d="M16.0814 63.836C14.4783 55.8205 13.2532 47.6301 16.1117 39.7691C19.2324 31.1872 27.5743 27.1754 33.5625 20.8008C35.141 19.1205 37.102 18.2351 39.2682 17.5231C44.3365 15.8573 49.5735 14.4157 54.7463 13.1225C61.4056 11.4577 68.2843 10.3018 75.1409 11.2105C82.7066 12.2132 90.7918 13.4013 98.0849 15.7629C104.443 17.8217 109.703 22.4764 115.202 26.1423C122.109 30.7469 129.135 35.1383 134.474 41.6204C137.783 45.6387 140.213 50.7654 142.334 55.49C144.63 60.6034 147.355 65.5942 150.043 70.5128C153.215 76.3173 154.21 81.5215 154.838 88.0547C156.068 100.851 149.139 112.658 143.336 123.685C141.543 127.09 140.431 131.451 137.326 133.973C135.327 135.598 131.756 136.158 129.405 136.917C124.808 138.401 120.229 140.146 115.414 140.771C101.267 142.609 86.2881 143.452 72.106 141.955C63.6721 141.064 54.6175 140.967 46.4913 138.374C40.3947 136.428 36.0841 131.418 32.5003 126.416C28.6924 121.101 23.4941 117 19.784 111.666C16.0817 106.344 14.9254 100.171 13.8963 93.8817C13.1315 89.2085 12.8967 83.9656 13.7142 79.2838C14.6139 74.1307 16.315 69.5485 16.6884 64.3216C17.3865 54.5479 22.2638 45.6831 26.4608 37.068C28.894 32.0737 30.5323 26.6023 33.8357 22.0755C38.7241 15.3766 48.985 13.8522 56.6279 12.4852C69.4264 10.196 81.5648 11.833 94.2609 14.0026C100.608 15.0872 106.888 17.2792 112.349 20.8008C122.506 27.3506 130.2 37.8195 137.175 47.3867C143.85 56.5433 147.352 68.4079 146.34 79.6783C145.048 94.0714 140.589 108.017 135.961 121.621C135.013 124.406 135.165 126.521 133.229 128.844C129.603 133.196 122.211 135.289 117.053 136.492C102.704 139.84 87.689 140.735 72.9558 139.648C67.2883 139.23 62.8788 136.372 57.8419 134.125C50.6142 130.9 44.3967 128.934 38.7826 123.108C30.255 114.259 21.1708 104.033 17.0526 92.3643C15.1256 86.9044 12.9412 81.8564 11.7415 76.1578C10.6718 71.0767 11.1648 65.6302 11.1648 60.4672C11.1648 56.5667 12.9935 52.0265 15.0495 48.7221C18.1798 43.6914 20.9901 38.4464 23.9418 33.3047C26.7538 28.4065 29.6895 24.1561 33.3197 19.8297C37.6764 14.6375 45.264 12.1193 51.6507 10.5428C66.5271 6.87077 82.4608 2.60449 97.569 7.3258C104.752 9.57039 112.181 11.6881 119.208 14.3668C125.908 16.9208 132.287 20.2306 136.143 26.4458C139.802 32.3445 143.683 38.1153 148.343 43.2593C155.952 51.6571 159.121 60.3549 162.182 71.1805C163.011 74.109 164.239 76.8925 165.096 79.7997C166.154 83.3895 165.809 87.5239 165.733 91.211C165.6 97.7251 165.95 106.108 163.002 112.152C161.509 115.213 159.991 117.246 157.327 119.254C150.559 124.352 144.169 129.585 137.66 134.975C122.941 147.162 104.053 147.418 85.8239 147.418C77.9868 147.418 70.6513 146.093 63.2441 143.442C54.792 140.417 44.2127 135.223 38.297 128.298C34.799 124.202 31.1906 120.057 27.9783 115.733C22.1855 107.935 19.0683 98.5966 15.5351 89.6328C11.1897 78.6085 10.3479 66.3373 13.0768 54.7919C15.5974 44.1282 19.8235 33.0545 27.1285 24.8069C29.9054 21.6717 32.7638 17.8711 36.6582 16.0664C43.2243 13.0235 50.7573 11.6023 57.9329 11.4229C63.9819 11.2717 69.992 11.68 75.9907 12.4852C82.5842 13.3702 88.2923 15.5783 94.443 17.7052C101.631 20.1908 108.231 23.0136 114.929 26.7189C118.336 28.6039 122.275 30.6494 124.792 33.7296C126.821 36.2117 128.19 39.2511 129.952 41.9239C133.534 47.3592 137.898 52.2555 141.181 57.8876C146.864 67.6369 153.649 77.9926 157.448 88.6617C159.735 95.0854 159.803 103.143 158.541 109.785C157.921 113.045 155.64 118.989 152.41 120.65C151.504 121.116 150.549 121.411 149.557 121.621C145.678 122.44 142.262 124.233 138.783 126.082C128.256 131.679 118.647 138.107 107.554 142.683C102.134 144.919 97.8132 148.19 91.833 148.632C82.9794 149.285 73.7652 150.334 64.8829 149.481C51.4028 148.187 38.5928 136.591 30.8008 126.295C27.0139 121.291 22.2518 117.164 19.6019 111.363C17.7279 107.26 16.4197 102.877 14.7764 98.6769C13.685 95.8878 12.1877 93.0486 11.529 90.1184C9.83646 82.5895 9.17074 74.8395 8.16026 67.2048C7.08502 59.0808 7.99174 52.0766 9.73841 44.0787C11.0229 38.1971 12.3966 31.7713 16.567 27.1135C21.2523 21.8805 28.0774 17.0174 34.4123 14.0026C50.5393 6.32775 68.3168 7.70318 85.2169 11.9692C93.8369 14.1452 102.258 17.0784 110.68 19.9207C117.282 22.1489 125.435 24.1018 129.982 29.8146C135.38 36.5966 140.359 43.7998 145.49 50.7859C148.908 55.4382 152.792 60.5727 154.474 66.1425C158.31 78.8447 159.601 92.0508 158.662 105.202C158.322 109.967 156.994 114.618 153.806 118.282C147.419 125.624 140.721 132.198 134.99 140.134C131.816 144.528 128.9 150.005 123.578 152.061C116.821 154.672 109.786 156.456 102.728 158.04C91.0738 160.656 80.0275 159.882 68.4034 158.465C62.3246 157.723 56.4801 156.087 50.5581 154.519C45.0803 153.069 40.2339 151.144 36.5064 146.78C28.6467 137.579 17.0585 129.747 12.6823 118.1C8.28035 106.386 5.73849 92.2299 7.34083 79.6783C9.03329 66.4207 15.7752 57.1223 23.9722 46.9315C31.5832 37.4691 40.1189 30.2072 52.3183 27.5991C61.4536 25.646 70.2808 24.8455 79.6326 25.1408C88.1628 25.4102 96.6214 26.3116 104.398 30.0877C110.306 32.9568 116.132 37.0302 121.272 41.1045C134.018 51.2084 139.337 68.1503 141.94 83.563C144.713 99.9908 140.861 116.294 135.839 131.879C134.476 136.11 131.629 140.947 128.282 143.867C120.396 150.747 108.936 157.313 98.4188 158.252C92.8209 158.752 87.1301 158.783 81.5143 158.859C76.377 158.929 70.8617 159.316 65.7934 158.222C60.8796 157.161 56.1445 154.923 51.3472 153.427C45.4786 151.596 39.9136 149.234 35.2014 145.172C21.9265 133.728 11.0467 117.68 4.97359 101.348C1.49146 91.9831 0.7854 83.6384 0.7854 73.7299C0.7854 60.2432 5.67663 48.0058 10.5578 35.5809C12.9713 29.4375 18.3116 25.3862 22.3333 20.3153C26.5014 15.0598 30.8448 10.101 37.2651 7.56859C44.5305 4.70282 53.7861 2.16643 61.6962 2.16643C71.2871 2.16643 81.5279 7.68163 89.3444 12.7583C92.7519 14.9714 95.5053 17.8291 98.6616 20.3456C102.116 23.1002 106.096 25.0753 109.86 27.3563C117.191 31.7975 123.18 37.3205 128.252 44.2304C131.803 49.0688 133.92 55.2389 136.78 60.5279C145.04 75.801 151.967 91.3699 147.949 108.905C145.909 117.806 141.922 124.648 135.839 131.333C128.67 139.212 120.926 147.011 111.135 151.545C105.061 154.359 98.3266 156.439 91.7116 157.494C86.6524 158.3 81.526 158.323 76.4156 158.343C71.5118 158.363 66.7492 158.621 62.0301 157.099C45.1777 151.663 30.2589 141.11 21.787 125.445C17.0583 116.701 12.3212 107.359 9.58667 97.7664C6.93528 88.4655 6.79454 79.2967 6.79454 69.7238C6.79454 55.9422 11.897 41.2204 21.5746 31.0589C29.2036 23.0484 39.097 15.7662 50.1332 13.4563C64.4318 10.4636 80.1862 13.6672 93.5629 18.9799C103.059 22.7514 113.548 26.4952 121.818 32.5763C128.123 37.2125 131.845 44.281 135.839 50.8465C138.216 54.7534 140.929 58.4952 143.032 62.5613C145.691 67.7019 146.852 73.2532 148.222 78.8285C150.314 87.3465 153.24 96.258 152.835 105.172C152.489 112.789 151.24 121.708 146.644 127.964C142.451 133.671 136.648 138.289 131.105 142.623C127.468 145.466 124.322 148.911 120.452 151.454C113.911 155.753 106.109 158.401 98.9347 161.439C88.3975 165.901 78.0166 165.552 66.7646 165.445C57.9935 165.362 51.1607 162.404 43.8813 157.615C36.6041 152.827 27.3043 148.036 21.9691 140.923C16.0509 133.032 12.3536 123.887 8.79759 114.762C5.6447 106.672 2.97392 97.6862 2.54565 88.9651C2.15889 81.0892 1.2219 72.4862 1.99937 64.6251C2.54769 59.081 5.82105 54.2022 8.76724 49.6326C14.4765 40.7773 21.5774 34.3823 31.4077 30.3608C47.4408 23.8019 64.3837 15.1122 81.9392 14.0633C93.848 13.3518 106.714 17.9887 117.205 23.2895C133.415 31.4796 144.279 46.1074 148.768 63.6539C154.402 85.6773 147.814 108.727 138.146 128.601C135.165 134.729 130.141 140.704 125.581 145.749C118.067 154.062 104.712 157.822 93.9574 159.345C73.2634 162.275 52.9251 150.115 37.2044 137.888C29.7481 132.089 23.9653 123.887 19.4805 115.612C14.1632 105.8 8.94953 96.1179 6.73384 85.0805C3.49452 68.9438 5.71845 50.3445 17.9023 38.1606C24.605 31.4579 32.8172 28.1654 41.4533 24.8069C48.3521 22.1241 54.0152 17.2615 61.1803 15.0345C67.5099 13.0672 74.8941 11.3922 81.575 12.0603C86.1967 12.5225 90.4232 14.4025 94.6858 16.1271C100.413 18.4442 106.328 20.5583 111.378 24.2C117.82 28.8453 124.438 33.7899 130.437 38.98C135.272 43.1632 139.025 47.9751 141.909 53.6994C147.428 64.6532 147.39 75.5586 146.644 87.6905C146.187 95.1203 146.384 105.181 142.152 111.818C139.074 116.644 136.083 121.484 132.622 126.052C129.563 130.09 126.34 134.019 123.548 138.252C122.287 140.165 121.155 141.765 119.208 143.047C111.36 148.216 100.783 149.362 91.7116 150.362C84.7398 151.13 77.8736 150.82 70.8921 150.271C63.6616 149.702 56.3476 149.07 49.6476 146.082C39.6435 141.621 30.8811 135.283 22.7582 127.964C17.3099 123.054 12.7501 117.645 9.98121 110.908C6.5083 102.457 4.6094 94.8829 4.6094 85.7481C4.6094 75.5852 5.13639 65.8829 7.46222 55.9452C9.15044 48.7319 10.6566 42.2226 15.9297 36.7645C22.8692 29.5815 31.1072 23.4813 39.2378 17.7356C45.7573 13.1285 51.7142 10.6871 59.6628 9.63234C69.6256 8.31027 77.7934 7.09875 87.1592 11.2712C95.4355 14.9583 104.081 18.8153 110.68 25.2015C118.082 32.365 127.108 37.9957 132.106 47.1743C141.267 63.996 148.08 80.9964 147.736 100.437C147.667 104.355 146.579 109.58 144.125 112.789C138.022 120.77 129.462 127.278 122.577 134.61C111.94 145.938 99.0864 158.737 82.6068 159.861C73.4818 160.483 64.2756 156.394 56.5672 151.909C51.1864 148.779 48.3269 145.306 44.4882 140.741C39.4465 134.745 35.1531 128.005 31.2863 121.196C29.0314 117.225 25.5871 112.368 24.6399 107.842C24.2342 105.904 23.8226 98.4245 23.7901 97.8271C23.1976 86.9324 22.7069 75.9841 23.3956 65.0803C23.9711 55.9673 25.8461 45.0695 33.1983 38.7676C35.6316 36.682 38.4079 34.9685 40.7553 32.7888C43.5409 30.2021 45.618 26.9798 48.1908 24.2C52.9204 19.0899 59.9994 17.084 66.4307 15.0345C73.7703 12.6955 80.5723 11.6886 88.1 13.9723C98.1754 17.0288 106.139 21.5187 113.927 28.5702C122.793 36.5969 132.121 43.1738 137.782 54.0636C141.366 60.9578 146.234 69.8648 146.006 77.9484C145.703 88.7048 142.109 100.388 136.811 109.724C131.121 119.748 126.277 130.19 120.908 140.377C116.698 148.363 111.689 150.558 102.637 151.545C87.391 153.208 72.1522 152.244 57.2956 148.48C46.4651 145.736 38.7615 140.289 30.1938 133.336C24.1507 128.431 17.4551 123.181 12.4395 117.19C10.3242 114.663 9.67881 111.211 8.97968 108.085C7.7935 102.782 6.75515 97.3842 6.00546 92.0001C4.89814 84.0475 5.01218 76.0784 5.70197 68.0849C6.36348 60.4191 6.99806 52.4169 10.6185 45.5051C13.4104 40.1752 18.2827 34.8017 22.6975 30.8161C28.9687 25.1546 36.395 19.1488 44.2455 15.8843C52.2857 12.5408 62.3542 10.5412 71.0135 9.87513C76.2605 9.47151 81.5956 9.26815 86.8557 9.26815C94.9018 9.26815 101.39 11.1273 108.889 14.4275C115.976 17.546 126.023 22.5376 132.622 26.6279C136.787 29.2091 140.605 31.8025 143.366 35.854C145.771 39.3831 147.128 44.4913 148.556 48.5097C152.254 58.9206 153.528 69.7973 152.349 80.8316C151.372 89.9801 149 98.9713 146.886 107.903C145.177 115.127 143.332 122.724 138.814 128.723C132.056 137.693 125.262 145.906 115.779 152.091C114.471 152.945 113.543 154.204 112.258 155.096C108.917 157.414 104.823 158.543 100.938 159.557C92.0357 161.882 83.1179 163.415 73.927 162.35C66.0922 161.442 55.8775 160.153 48.8585 156.158C40.3406 151.311 32.7897 144.321 26.8857 136.553C23.4586 132.043 19.1765 127.325 17.174 121.955C12.8785 110.435 10.811 98.3865 8.4941 86.3248C6.76716 77.3346 3.64821 67.3307 4.7308 57.9483C5.10355 54.7177 6.48823 51.0498 7.46222 47.933C10.1347 39.3811 13.3341 29.3948 19.9964 23.077C24.6656 18.6493 28.9418 14.5478 34.3516 11.0891C37.1038 9.32952 39.7194 7.37738 42.3031 5.38345C46.1755 2.39499 49.9588 1.65391 54.8373 1.10421C65.8839 -0.140474 75.6924 1.37122 86.1273 4.71577C90.2998 6.05311 94.5646 7.17732 98.4795 9.2378C102.04 11.1117 105.387 13.9743 108.677 16.3092C115.758 21.3344 122.64 24.2256 126.613 32.4549C128.521 36.4062 128.616 43.0886 128.616 47.4474" stroke="#FE9801" stroke-linecap="round"/>
</svg>
