<svg width="405" height="45" viewBox="0 0 405 45" fill="none" xmlns="http://www.w3.org/2000/svg">
<path d="M19.5793 26.9853C63.6751 26.9853 106.647 13.6142 150.781 13.6142C175.149 13.6142 199.517 13.6142 223.885 13.6142C281.097 13.6142 338.046 16.957 395.39 16.957C400.931 16.957 403.965 16.957 403.965 16.957C385.393 16.957 366.994 15.6238 348.441 14.357C321.454 12.5145 294.872 16.957 268.047 16.957C222.133 16.957 176.239 20.2998 130.522 20.2998C106.798 20.2998 83.8701 16.957 60.5262 16.957C49.5102 16.957 38.8065 11.9193 27.7258 14.357C21.6542 15.6928 16.0613 16.957 9.93212 16.957C-9.51265 16.957 18.9619 23.6425 25.4748 23.6425C58.962 23.6425 91.8215 13.6142 125.269 13.6142C152.391 13.6142 179.113 19.1409 206.091 20.2998C268.72 22.99 331.341 33.6708 393.889 33.6708M393.889 33.6708C449.046 33.6708 283.757 20.2998 228.601 20.2998C200.227 20.2998 172.185 23.6425 143.921 23.6425C116.757 23.6425 83.8862 16.1053 57.3104 25.3139C39.163 31.602 2 33.6708 2 33.6708C2 33.6708 20.8656 33.6708 30.2984 33.6708C39.3024 33.6708 48.3064 33.6708 57.3104 33.6708C66.3177 33.6708 81.4779 28.431 90.1108 34.4137C101.265 42.1436 118.537 37.0136 130.629 37.0136C149.816 37.0136 169.003 37.0136 188.19 37.0136C227.458 37.0136 266.725 37.0136 305.993 37.0136C327.823 37.0136 349.567 40.3564 371.487 40.3564C378.633 40.3564 385.779 40.3564 392.925 40.3564C396.679 40.3564 406.652 44.5087 404.18 39.6135C400.653 32.6303 383.634 33.2537 378.454 31.0709C359.494 23.0808 341.042 23.6425 321.643 23.6425C247.824 23.6425 174.005 23.6425 100.187 23.6425C75.4971 23.6425 50.8075 23.6425 26.1179 23.6425C3.36736 23.6425 28.6962 23.6425 36.837 23.6425C63.9563 23.6425 91.0755 23.6425 118.195 23.6425C151.21 23.6425 184.224 23.6425 217.239 23.6425C252.109 23.6425 286.858 30.3281 321.643 30.3281C339.533 30.3281 357.364 33.6708 375.345 33.6708C381.335 33.6708 393.249 37.2808 398.177 31.0709C400.699 27.8939 405.634 31.5559 398.177 27.7281C394.098 25.6342 388.907 26.9853 384.671 26.9853C369.08 26.9853 353.926 23.6425 338.15 23.6425C280.807 23.6425 223.732 13.6142 166.216 13.6142C144.076 13.6142 123.618 20.4469 101.902 23.4568C79.4807 26.5644 58.6172 25.1954 36.301 32.928C29.1702 35.3989 18.409 36.1125 11.8616 31.0709C7.15782 27.449 12.9701 31.28 16.1492 29.5852C22.8545 26.0108 30.8081 24.1899 37.8017 23.8282C104.882 20.359 174.23 8.51276 241.035 21.9711C266.548 27.1107 292.953 23.6425 318.642 23.6425C335.969 23.6425 353.805 29.7621 371.165 32.928C378.675 34.2976 386.345 33.6708 393.889 33.6708ZM393.889 33.6708C398.841 33.6708 403.605 33.6708 395.712 33.6708C384.977 33.6708 392.857 32.9743 398.713 33.8566M383.814 26.9853C374.952 26.9853 366.091 26.9853 357.23 26.9853C348.487 26.9853 357.644 26.9853 361.196 26.9853M383.385 20.2998C379.331 20.2998 370.728 15.049 379.74 13.7999M391.103 10.2714C390.222 10.2714 381.49 11.0697 385.529 13.6142M391.424 36.8279C390.705 37.1048 402.161 37.0136 399.678 37.0136C391.25 37.0136 382.977 38.2627 374.595 39.6135C364.893 41.1772 368.859 40.8909 376.31 39.985C384.854 38.9462 395.913 37.8609 403.751 31.0709C409.153 26.391 391.676 30.3281 385.636 30.3281C378.903 30.3281 362.023 30.3281 378.454 30.3281C379.156 30.3281 388.274 30.3281 382.42 30.3281C377.239 30.3281 361.698 30.5773 366.877 30.3281C373.619 30.0036 394.997 24.0734 376.096 23.6425C371.773 23.544 358.802 23.6425 363.126 23.6425C370.379 23.6425 377.632 23.6425 384.885 23.6425C393.116 23.6425 378.754 23.6425 378.025 23.6425C369.629 23.6425 361.232 23.6425 352.835 23.6425C352.618 23.6425 366.302 16.957 359.052 16.957C346.552 16.957 373.851 14.0135 363.019 13.6142C345.897 12.9831 366.855 12.3756 372.88 9.5286C375.454 8.31265 351.583 9.11733 354.658 10.0857C366.579 13.841 368.59 0.863429 355.194 8.60005C352.906 9.92109 378.699 3.5859 367.521 3.5859C360.654 3.5859 342.321 15.9121 354.229 6.74296C365.713 -2.10011 337.788 6.69959 333.434 12.8714C330.439 17.1165 341.216 13.0423 345.01 14.357C354.78 17.7423 363.269 20.2998 373.202 20.2998C379.955 20.2998 393.461 20.2998 393.461 20.2998C393.461 20.2998 375.021 20.0912 365.805 20.4855C347.476 21.2695 329.449 27.218 311.138 28.8424C284.663 31.1911 258.103 30.3281 231.603 30.3281C190.644 30.3281 314.32 39.3876 354.443 25.1282C361.473 22.6299 350.26 25.0672 349.405 25.3139C341.758 27.5219 334.091 26.9853 326.359 26.9853C293.124 26.9853 193.436 23.6425 226.672 23.6425C260.508 23.6425 295.418 18.8201 329.146 24.3854C341.356 26.4 353.973 26.429 366.02 30.3281C376.04 33.571 406.548 37.0136 396.355 37.0136C374.917 37.0136 353.479 37.0136 332.04 37.0136C318.398 37.0136 303.89 39.5469 290.558 34.4137C278.569 29.7982 256.626 43.4213 246.824 31.0709C244.139 27.6885 236.55 30.3281 233.318 30.3281C222.563 30.3281 211.808 30.3281 201.053 30.3281C188.583 30.3281 176.114 30.3281 163.644 30.3281C152.281 30.3281 186.368 30.3281 197.73 30.3281C218.297 30.3281 200.072 30.3281 190.227 30.3281C151.533 30.3281 114.472 37.0136 75.7472 37.0136C70.582 37.0136 50.0573 37.0136 67.6007 37.0136C84.251 37.0136 100.901 37.0136 117.552 37.0136C127.628 37.0136 137.704 37.0136 147.779 37.0136C156.783 37.0136 165.788 37.0136 174.792 37.0136C194.027 37.0136 159.777 37.0136 155.176 37.0136C131.951 37.0136 108.726 37.0136 85.5016 37.0136C76.9621 37.0136 68.4225 37.0136 59.883 37.0136C53.5588 37.0136 72.5315 37.0136 78.8558 37.0136C91.9133 37.0136 105.169 38.1342 118.195 36.2708C122.885 35.5999 135.831 35.0361 131.915 30.5138C129.237 27.4208 119.035 30.3281 116.265 30.3281C101.545 30.3281 86.8236 30.3281 72.1028 30.3281C70.6235 30.3281 54.2321 30.3281 58.0608 30.3281C65.8142 30.3281 73.5677 30.3281 81.3212 30.3281C83.8682 30.3281 108.589 26.9853 97.1854 26.9853C82.8218 26.9853 68.4583 26.9853 54.0947 26.9853C44.4475 26.9853 92.6834 26.9853 83.0362 26.9853C70.6378 26.9853 58.2394 26.9853 45.841 26.9853C35.3721 26.9853 87.7169 26.9853 77.2479 26.9853C56.6656 26.9853 36.272 29.1412 15.7204 30.3281C11.9351 30.5467 23.2952 30.3281 27.0826 30.3281C34.6811 30.3281 28.4684 30.3281 24.5101 30.3281C10.7586 30.3281 23.1225 33.6708 29.2265 33.6708C41.407 33.6708 22.4595 33.7543 23.0094 35.3422C25.1849 41.624 39.8863 37.0136 35.6579 37.0136C31.8322 37.0136 13.9416 37.0136 26.8683 37.0136C31.2213 37.0136 47.2903 37.0136 46.1626 37.0136C41.8051 37.0136 21.2137 37.0136 36.301 37.0136C46.5321 37.0136 76.3069 41.6127 66.9576 34.4137C57.0829 26.8101 37.4904 33.6708 27.0826 33.6708C19.5636 33.6708 13.9755 29.4705 7.03797 26.7996C-1.98249 23.3267 6.93951 20.2998 11.4328 20.2998C24.7959 20.2998 64.1995 27.621 51.5221 20.2998C46.8278 17.5887 26.3982 22.5567 23.6525 16.2141C23.0419 14.8035 39.0195 13.439 39.1952 13.4285C42.6322 13.2232 60.0875 9.00798 59.2399 8.60005C45.8918 2.17622 29.1157 6.92867 15.2917 6.92867C6.71639 6.92867 32.4422 6.92867 41.0174 6.92867C45.0677 6.92867 32.8218 6.81422 28.9049 8.60005C25.521 10.1429 41.2028 10.2714 42.9469 10.2714C63.1702 10.2714 83.3935 10.2714 103.617 10.2714C105.475 10.2714 99.9009 10.2714 98.0429 10.2714C94.8272 10.2714 104.474 10.2714 107.69 10.2714C115.443 10.2714 144.971 10.2714 121.732 10.2714C118.749 10.2714 110.686 10.2714 118.838 10.2714C130.093 10.2714 141.348 10.2714 152.603 10.2714C172.481 10.2714 138.291 8.86348 147.136 11.0143C152.706 12.3686 158.226 13.6142 163.858 13.6142C166.781 13.6142 162.892 13.6142 163.001 13.6142C182.375 13.6142 201.74 13.7471 221.098 15.2856C226.768 15.7362 232.777 15.92 238.463 16.957C239.275 17.105 236.515 17.3152 236.212 18.6284C235.9 19.9785 255.086 20.2998 255.935 20.2998C265.338 20.2998 274.387 23.6425 283.805 23.6425C307.168 23.6425 330.579 26.9853 353.8 26.9853C364.07 26.9853 374.456 30.3281 385.529 30.3281" stroke="black" stroke-width="5" stroke-linecap="round"/>
</svg>
