<svg width="167" height="166" viewBox="0 0 167 166" fill="none" xmlns="http://www.w3.org/2000/svg">
<path d="M16.0812 63.836C14.4781 55.8205 13.253 47.6301 16.1115 39.7691C19.2322 31.1872 27.5741 27.1754 33.5623 20.8008C35.1408 19.1205 37.1018 18.2351 39.2679 17.5231C44.3363 15.8573 49.5733 14.4157 54.746 13.1225C61.4053 11.4577 68.284 10.3018 75.1407 11.2105C82.7064 12.2132 90.7915 13.4013 98.0847 15.7629C104.443 17.8217 109.703 22.4764 115.202 26.1423C122.108 30.7469 129.135 35.1383 134.473 41.6204C137.783 45.6387 140.213 50.7654 142.334 55.49C144.63 60.6034 147.354 65.5942 150.043 70.5128C153.215 76.3173 154.21 81.5215 154.838 88.0547C156.068 100.851 149.139 112.658 143.335 123.685C141.543 127.09 140.43 131.451 137.326 133.973C135.327 135.598 131.756 136.158 129.405 136.917C124.807 138.401 120.228 140.146 115.414 140.771C101.267 142.609 86.2878 143.452 72.1058 141.955C63.6719 141.064 54.6172 140.967 46.4911 138.374C40.3945 136.428 36.0839 131.418 32.5001 126.416C28.6922 121.101 23.4939 117 19.7838 111.666C16.0814 106.344 14.9252 100.171 13.896 93.8817C13.1313 89.2085 12.8965 83.9656 13.7139 79.2838C14.6137 74.1307 16.3148 69.5485 16.6881 64.3216C17.3863 54.5479 22.2635 45.6831 26.4606 37.068C28.8937 32.0737 30.5321 26.6023 33.8354 22.0755C38.7239 15.3766 48.9847 13.8522 56.6277 12.4852C69.4262 10.196 81.5645 11.833 94.2607 14.0026C100.607 15.0872 106.888 17.2792 112.349 20.8008C122.506 27.3506 130.2 37.8195 137.174 47.3867C143.849 56.5433 147.351 68.4079 146.34 79.6783C145.048 94.0714 140.589 108.017 135.96 121.621C135.013 124.406 135.165 126.521 133.229 128.844C129.602 133.196 122.211 135.289 117.053 136.492C102.704 139.84 87.6887 140.735 72.9556 139.648C67.2881 139.23 62.8785 136.372 57.8417 134.125C50.6139 130.9 44.3965 128.934 38.7824 123.108C30.2548 114.259 21.1706 104.033 17.0523 92.3643C15.1253 86.9044 12.9409 81.8564 11.7412 76.1578C10.6715 71.0767 11.1646 65.6302 11.1646 60.4672C11.1646 56.5667 12.9932 52.0265 15.0493 48.7221C18.1795 43.6914 20.9899 38.4464 23.9416 33.3047C26.7535 28.4065 29.6892 24.1561 33.3195 19.8297C37.6762 14.6375 45.2638 12.1193 51.6504 10.5428C66.5269 6.87077 82.4606 2.60449 97.5688 7.3258C104.751 9.57039 112.181 11.6881 119.208 14.3668C125.907 16.9208 132.287 20.2306 136.143 26.4458C139.802 32.3445 143.683 38.1153 148.343 43.2593C155.951 51.6571 159.12 60.3549 162.182 71.1805C163.01 74.109 164.239 76.8925 165.096 79.7997C166.154 83.3895 165.808 87.5239 165.733 91.211C165.6 97.7251 165.95 106.108 163.002 112.152C161.509 115.213 159.991 117.246 157.326 119.254C150.559 124.352 144.169 129.585 137.66 134.975C122.941 147.162 104.053 147.418 85.8236 147.418C77.9865 147.418 70.6511 146.093 63.2438 143.442C54.7918 140.417 44.2125 135.223 38.2968 128.298C34.7987 124.202 31.1904 120.057 27.978 115.733C22.1852 107.935 19.068 98.5966 15.5349 89.6328C11.1895 78.6085 10.3477 66.3373 13.0766 54.7919C15.5971 44.1282 19.8233 33.0545 27.1283 24.8069C29.9051 21.6717 32.7635 17.8711 36.6579 16.0664C43.2241 13.0235 50.757 11.6023 57.9327 11.4229C63.9816 11.2717 69.9917 11.68 75.9905 12.4852C82.5839 13.3702 88.2921 15.5783 94.4428 17.7052C101.631 20.1908 108.23 23.0136 114.928 26.7189C118.336 28.6039 122.275 30.6494 124.792 33.7296C126.82 36.2117 128.19 39.2511 129.951 41.9239C133.534 47.3592 137.898 52.2555 141.181 57.8876C146.863 67.6369 153.649 77.9926 157.448 88.6617C159.735 95.0854 159.803 103.143 158.54 109.785C157.92 113.045 155.64 118.989 152.41 120.65C151.504 121.116 150.549 121.411 149.557 121.621C145.678 122.44 142.261 124.233 138.783 126.082C128.255 131.679 118.647 138.107 107.554 142.683C102.133 144.919 97.8129 148.19 91.8328 148.632C82.9791 149.285 73.7649 150.334 64.8827 149.481C51.4025 148.187 38.5926 136.591 30.8005 126.295C27.0136 121.291 22.2516 117.164 19.6017 111.363C17.7277 107.26 16.4195 102.877 14.7761 98.6769C13.6848 95.8878 12.1875 93.0486 11.5288 90.1184C9.83622 82.5895 9.1705 74.8395 8.16001 67.2048C7.08478 59.0808 7.9915 52.0766 9.73817 44.0787C11.0227 38.1971 12.3964 31.7713 16.5667 27.1135C21.2521 21.8805 28.0772 17.0174 34.4121 14.0026C50.539 6.32775 68.3165 7.70318 85.2166 11.9692C93.8367 14.1452 102.258 17.0784 110.68 19.9207C117.282 22.1489 125.435 24.1018 129.982 29.8146C135.38 36.5966 140.359 43.7998 145.49 50.7859C148.907 55.4382 152.791 60.5727 154.474 66.1425C158.31 78.8447 159.601 92.0508 158.662 105.202C158.321 109.967 156.994 114.618 153.806 118.282C147.419 125.624 140.721 132.198 134.989 140.134C131.815 144.528 128.9 150.005 123.578 152.061C116.821 154.672 109.785 156.456 102.728 158.04C91.0735 160.656 80.0272 159.882 68.4032 158.465C62.3244 157.723 56.4799 156.087 50.5578 154.519C45.08 153.069 40.2337 151.144 36.5062 146.78C28.6464 137.579 17.0582 129.747 12.682 118.1C8.28011 106.386 5.73825 92.2299 7.34058 79.6783C9.03304 66.4207 15.775 57.1223 23.9719 46.9315C31.583 37.4691 40.1186 30.2072 52.3181 27.5991C61.4534 25.646 70.2806 24.8455 79.6324 25.1408C88.1626 25.4102 96.6211 26.3116 104.397 30.0877C110.306 32.9568 116.132 37.0302 121.271 41.1045C134.018 51.2084 139.337 68.1503 141.939 83.563C144.713 99.9908 140.861 116.294 135.839 131.879C134.476 136.11 131.629 140.947 128.282 143.867C120.396 150.747 108.935 157.313 98.4185 158.252C92.8206 158.752 87.1298 158.783 81.514 158.859C76.3768 158.929 70.8614 159.316 65.7931 158.222C60.8794 157.161 56.1442 154.923 51.3469 153.427C45.4783 151.596 39.9134 149.234 35.2011 145.172C21.9262 133.728 11.0465 117.68 4.97335 101.348C1.49122 91.9831 0.785156 83.6384 0.785156 73.7299C0.785156 60.2432 5.67639 48.0058 10.5576 35.5809C12.9711 29.4375 18.3113 25.3862 22.3331 20.3153C26.5012 15.0598 30.8446 10.101 37.2649 7.56859C44.5302 4.70282 53.7859 2.16643 61.696 2.16643C71.2868 2.16643 81.5277 7.68163 89.3441 12.7583C92.7516 14.9714 95.5051 17.8291 98.6613 20.3456C102.116 23.1002 106.095 25.0753 109.86 27.3563C117.191 31.7975 123.18 37.3205 128.252 44.2304C131.803 49.0688 133.92 55.2389 136.78 60.5279C145.04 75.801 151.967 91.3699 147.948 108.905C145.909 117.806 141.921 124.648 135.839 131.333C128.67 139.212 120.925 147.011 111.135 151.545C105.061 154.359 98.3264 156.439 91.7114 157.494C86.6522 158.3 81.5258 158.323 76.4154 158.343C71.5116 158.363 66.7489 158.621 62.0298 157.099C45.1775 151.663 30.2587 141.11 21.7868 125.445C17.0581 116.701 12.3209 107.359 9.58642 97.7664C6.93504 88.4655 6.7943 79.2967 6.7943 69.7238C6.7943 55.9422 11.8967 41.2204 21.5744 31.0589C29.2034 23.0484 39.0968 15.7662 50.133 13.4563C64.4316 10.4636 80.186 13.6672 93.5627 18.9799C103.059 22.7514 113.547 26.4952 121.818 32.5763C128.123 37.2125 131.845 44.281 135.839 50.8465C138.216 54.7534 140.929 58.4952 143.032 62.5613C145.691 67.7019 146.852 73.2532 148.222 78.8285C150.314 87.3465 153.24 96.258 152.835 105.172C152.488 112.789 151.24 121.708 146.643 127.964C142.451 133.671 136.648 138.289 131.105 142.623C127.468 145.466 124.322 148.911 120.452 151.454C113.91 155.753 106.109 158.401 98.9345 161.439C88.3972 165.901 78.0163 165.552 66.7643 165.445C57.9933 165.362 51.1604 162.404 43.881 157.615C36.6039 152.827 27.304 148.036 21.9689 140.923C16.0507 133.032 12.3533 123.887 8.79735 114.762C5.64445 106.672 2.97368 97.6862 2.54541 88.9651C2.15865 81.0892 1.22165 72.4862 1.99912 64.6251C2.54745 59.081 5.82081 54.2022 8.767 49.6326C14.4763 40.7773 21.5772 34.3823 31.4075 30.3608C47.4406 23.8019 64.3834 15.1122 81.9389 14.0633C93.8477 13.3518 106.714 17.9887 117.205 23.2895C133.414 31.4796 144.279 46.1074 148.768 63.6539C154.402 85.6773 147.814 108.727 138.146 128.601C135.165 134.729 130.141 140.704 125.581 145.749C118.067 154.062 104.711 157.822 93.9572 159.345C73.2632 162.275 52.9249 150.115 37.2042 137.888C29.7479 132.089 23.9651 123.887 19.4803 115.612C14.163 105.8 8.94929 96.1179 6.7336 85.0805C3.49427 68.9438 5.7182 50.3445 17.9021 38.1606C24.6048 31.4579 32.8169 28.1654 41.4531 24.8069C48.3518 22.1241 54.015 17.2615 61.1801 15.0345C67.5097 13.0672 74.8939 11.3922 81.5747 12.0603C86.1965 12.5225 90.4229 14.4025 94.6856 16.1271C100.413 18.4442 106.327 20.5583 111.378 24.2C117.82 28.8453 124.438 33.7899 130.437 38.98C135.272 43.1632 139.025 47.9751 141.909 53.6994C147.428 64.6532 147.389 75.5586 146.643 87.6905C146.187 95.1203 146.384 105.181 142.152 111.818C139.074 116.644 136.082 121.484 132.622 126.052C129.563 130.09 126.34 134.019 123.548 138.252C122.286 140.165 121.155 141.765 119.208 143.047C111.359 148.216 100.782 149.362 91.7114 150.362C84.7395 151.13 77.8734 150.82 70.8918 150.271C63.6614 149.702 56.3473 149.07 49.6474 146.082C39.6433 141.621 30.8809 135.283 22.758 127.964C17.3097 123.054 12.7499 117.645 9.98096 110.908C6.50806 102.457 4.60916 94.8829 4.60916 85.7481C4.60916 75.5852 5.13615 65.8829 7.46198 55.9452C9.1502 48.7319 10.6564 42.2226 15.9294 36.7645C22.869 29.5815 31.1069 23.4813 39.2376 17.7356C45.757 13.1285 51.7139 10.6871 59.6626 9.63234C69.6254 8.31027 77.7932 7.09875 87.159 11.2712C95.4353 14.9583 104.081 18.8153 110.68 25.2015C118.082 32.365 127.108 37.9957 132.106 47.1743C141.266 63.996 148.08 80.9964 147.736 100.437C147.667 104.355 146.578 109.58 144.124 112.789C138.021 120.77 129.461 127.278 122.576 134.61C111.94 145.938 99.0862 158.737 82.6066 159.861C73.4815 160.483 64.2754 156.394 56.567 151.909C51.1862 148.779 48.3266 145.306 44.488 140.741C39.4463 134.745 35.1528 128.005 31.2861 121.196C29.0311 117.225 25.5869 112.368 24.6396 107.842C24.2339 105.904 23.8223 98.4245 23.7899 97.8271C23.1973 86.9324 22.7066 75.9841 23.3953 65.0803C23.9709 55.9673 25.8458 45.0695 33.1981 38.7676C35.6313 36.682 38.4077 34.9685 40.7551 32.7888C43.5407 30.2021 45.6177 26.9798 48.1906 24.2C52.9201 19.0899 59.9992 17.084 66.4305 15.0345C73.7701 12.6955 80.572 11.6886 88.0998 13.9723C98.1751 17.0288 106.139 21.5187 113.927 28.5702C122.792 36.5969 132.121 43.1738 137.781 54.0636C141.365 60.9578 146.234 69.8648 146.006 77.9484C145.703 88.7048 142.109 100.388 136.81 109.724C131.121 119.748 126.277 130.19 120.907 140.377C116.698 148.363 111.689 150.558 102.637 151.545C87.3908 153.208 72.152 152.244 57.2954 148.48C46.4648 145.736 38.7613 140.289 30.1935 133.336C24.1505 128.431 17.4549 123.181 12.4392 117.19C10.3239 114.663 9.67857 111.211 8.97944 108.085C7.79325 102.782 6.75491 97.3842 6.00522 92.0001C4.8979 84.0475 5.01193 76.0784 5.70173 68.0849C6.36324 60.4191 6.99782 52.4169 10.6183 45.5051C13.4101 40.1752 18.2824 34.8017 22.6973 30.8161C28.9684 25.1546 36.3948 19.1488 44.2452 15.8843C52.2854 12.5408 62.354 10.5412 71.0132 9.87513C76.2603 9.47151 81.5953 9.26815 86.8555 9.26815C94.9015 9.26815 101.389 11.1273 108.889 14.4275C115.976 17.546 126.023 22.5376 132.622 26.6279C136.787 29.2091 140.605 31.8025 143.366 35.854C145.77 39.3831 147.128 44.4913 148.555 48.5097C152.254 58.9206 153.527 69.7973 152.349 80.8316C151.372 89.9801 149 98.9713 146.886 107.903C145.177 115.127 143.332 122.724 138.813 128.723C132.056 137.693 125.262 145.906 115.778 152.091C114.47 152.945 113.543 154.204 112.258 155.096C108.917 157.414 104.823 158.543 100.938 159.557C92.0355 161.882 83.1177 163.415 73.9267 162.35C66.092 161.442 55.8773 160.153 48.8583 156.158C40.3403 151.311 32.7894 144.321 26.8855 136.553C23.4584 132.043 19.1763 127.325 17.1737 121.955C12.8783 110.435 10.8108 98.3865 8.49385 86.3248C6.76692 77.3346 3.64797 67.3307 4.73055 57.9483C5.10331 54.7177 6.48799 51.0498 7.46198 47.933C10.1345 39.3811 13.3339 29.3948 19.9962 23.077C24.6654 18.6493 28.9416 14.5478 34.3514 11.0891C37.1035 9.32952 39.7192 7.37738 42.3029 5.38345C46.1752 2.39499 49.9585 1.65391 54.8371 1.10421C65.8837 -0.140474 75.6921 1.37122 86.1271 4.71577C90.2996 6.05311 94.5643 7.17732 98.4792 9.2378C102.04 11.1117 105.387 13.9743 108.677 16.3092C115.758 21.3344 122.64 24.2256 126.613 32.4549C128.52 36.4062 128.616 43.0886 128.616 47.4474" stroke="black" stroke-linecap="round"/>
</svg>
