<svg width="588" height="45" viewBox="0 0 588 45" fill="none" xmlns="http://www.w3.org/2000/svg">
<path d="M26.6056 26.9853C90.8344 26.9853 153.427 13.6142 217.71 13.6142C253.204 13.6142 288.698 13.6142 324.192 13.6142C407.527 13.6142 490.476 16.957 574.002 16.957C582.074 16.957 586.493 16.957 586.493 16.957C559.441 16.957 532.641 15.6238 505.617 14.357C466.308 12.5145 427.591 16.957 388.518 16.957C321.641 16.957 254.792 20.2998 188.202 20.2998C153.647 20.2998 120.25 16.957 86.2478 16.957C70.2022 16.957 54.6115 11.9193 38.4715 14.357C29.6279 15.6928 21.4813 16.957 12.5537 16.957C-15.769 16.957 25.7064 23.6425 35.1928 23.6425C83.9695 23.6425 131.832 13.6142 180.551 13.6142C220.057 13.6142 258.979 19.1409 298.274 20.2998C389.498 22.99 480.711 33.6708 571.817 33.6708M571.817 33.6708C652.156 33.6708 411.401 20.2998 331.062 20.2998C289.732 20.2998 248.888 23.6425 207.718 23.6425C168.152 23.6425 120.273 16.1053 81.5638 25.3139C55.1308 31.602 1 33.6708 1 33.6708C1 33.6708 28.4791 33.6708 42.2187 33.6708C55.3337 33.6708 68.4488 33.6708 81.5638 33.6708C94.6835 33.6708 116.766 28.431 129.34 34.4137C145.587 42.1436 170.744 37.0136 188.358 37.0136C216.305 37.0136 244.253 37.0136 272.2 37.0136C329.397 37.0136 386.593 37.0136 443.789 37.0136C475.586 37.0136 507.258 40.3564 539.185 40.3564C549.594 40.3564 560.003 40.3564 570.411 40.3564C575.88 40.3564 590.406 44.5087 586.805 39.6135C581.668 32.6303 556.878 33.2537 549.334 31.0709C521.717 23.0808 494.84 23.6425 466.584 23.6425C359.061 23.6425 251.539 23.6425 144.016 23.6425C108.054 23.6425 72.0919 23.6425 36.1296 23.6425C2.99167 23.6425 39.8851 23.6425 51.7427 23.6425C91.244 23.6425 130.745 23.6425 170.247 23.6425C218.335 23.6425 266.423 23.6425 314.512 23.6425C365.303 23.6425 415.917 30.3281 466.584 30.3281C492.643 30.3281 518.615 33.6708 544.806 33.6708C553.53 33.6708 570.883 37.2808 578.062 31.0709C581.735 27.8939 588.923 31.5559 578.062 27.7281C572.121 25.6342 564.56 26.9853 558.389 26.9853C535.679 26.9853 513.607 23.6425 490.628 23.6425C407.104 23.6425 323.969 13.6142 240.193 13.6142C207.945 13.6142 178.147 20.4469 146.515 23.4568C113.857 26.5644 83.4673 25.1954 50.9621 32.928C40.5755 35.3989 24.9009 36.1125 15.3641 31.0709C8.51275 27.449 16.9787 31.28 21.6094 29.5852C31.3761 26.0108 42.9612 24.1899 53.1479 23.8282C150.856 20.359 251.865 8.51276 349.173 21.9711C386.334 27.1107 424.795 23.6425 462.212 23.6425C487.45 23.6425 513.431 29.7621 538.717 32.928C549.656 34.2976 560.828 33.6708 571.817 33.6708ZM571.817 33.6708C579.029 33.6708 585.968 33.6708 574.471 33.6708C558.834 33.6708 570.312 32.9743 578.843 33.8566M557.14 26.9853C544.233 26.9853 531.327 26.9853 518.42 26.9853C505.685 26.9853 519.022 26.9853 524.197 26.9853M556.516 20.2998C550.612 20.2998 538.08 15.049 551.207 13.7999M567.757 10.2714C566.475 10.2714 553.755 11.0697 559.638 13.6142M568.226 36.8279C567.178 37.1048 583.864 37.0136 580.248 37.0136C567.972 37.0136 555.922 38.2627 543.713 39.6135C529.581 41.1772 535.358 40.8909 546.211 39.985C558.656 38.9462 574.764 37.8609 586.181 31.0709C594.05 26.391 568.592 30.3281 559.794 30.3281C549.987 30.3281 525.4 30.3281 549.334 30.3281C550.356 30.3281 563.638 30.3281 555.111 30.3281C547.564 30.3281 524.928 30.5773 532.472 30.3281C542.291 30.0036 573.43 24.0734 545.899 23.6425C539.602 23.544 520.71 23.6425 527.007 23.6425C537.572 23.6425 548.137 23.6425 558.702 23.6425C570.69 23.6425 549.771 23.6425 548.709 23.6425C536.479 23.6425 524.249 23.6425 512.018 23.6425C511.701 23.6425 531.633 16.957 521.074 16.957C502.867 16.957 542.629 14.0135 526.851 13.6142C501.913 12.9831 532.439 12.3756 541.215 9.5286C544.963 8.31265 510.195 9.11733 514.673 10.0857C532.037 13.841 534.966 0.863429 515.453 8.60005C512.121 9.92109 549.691 3.5859 533.408 3.5859C523.406 3.5859 496.703 15.9121 514.048 6.74296C530.776 -2.10011 490.1 6.69959 483.758 12.8714C479.396 17.1165 495.094 13.0423 500.621 14.357C514.851 17.7423 527.216 20.2998 541.683 20.2998C551.52 20.2998 571.192 20.2998 571.192 20.2998C571.192 20.2998 544.333 20.0912 530.91 20.4855C504.212 21.2695 477.954 27.218 451.283 28.8424C412.721 31.1911 374.033 30.3281 335.434 30.3281C275.774 30.3281 455.917 39.3876 514.36 25.1282C524.6 22.6299 508.267 25.0672 507.022 25.3139C495.884 27.5219 484.716 26.9853 473.454 26.9853C425.044 26.9853 279.842 23.6425 328.252 23.6425C377.536 23.6425 428.385 18.8201 477.513 24.3854C495.298 26.4 513.675 26.429 531.222 30.3281C545.817 33.571 590.255 37.0136 575.408 37.0136C544.181 37.0136 512.955 37.0136 481.729 37.0136C461.858 37.0136 440.726 39.5469 421.306 34.4137C403.844 29.7982 371.881 43.4213 357.604 31.0709C353.694 27.6885 342.64 30.3281 337.932 30.3281C322.267 30.3281 306.601 30.3281 290.936 30.3281C272.773 30.3281 254.61 30.3281 236.446 30.3281C219.896 30.3281 269.546 30.3281 286.096 30.3281C316.052 30.3281 289.506 30.3281 275.167 30.3281C218.805 30.3281 164.825 37.0136 108.418 37.0136C100.895 37.0136 70.9991 37.0136 96.5524 37.0136C120.805 37.0136 145.057 37.0136 169.31 37.0136C183.986 37.0136 198.662 37.0136 213.339 37.0136C226.454 37.0136 239.569 37.0136 252.684 37.0136C280.702 37.0136 230.814 37.0136 224.112 37.0136C190.283 37.0136 156.455 37.0136 122.626 37.0136C110.188 37.0136 97.7495 37.0136 85.311 37.0136C76.0992 37.0136 103.734 37.0136 112.946 37.0136C131.965 37.0136 151.273 38.1342 170.247 36.2708C177.077 35.5999 195.934 35.0361 190.231 30.5138C186.331 27.4208 171.471 30.3281 167.436 30.3281C145.994 30.3281 124.552 30.3281 103.11 30.3281C100.955 30.3281 77.08 30.3281 82.6568 30.3281C93.9503 30.3281 105.244 30.3281 116.537 30.3281C120.247 30.3281 156.255 26.9853 139.645 26.9853C118.723 26.9853 97.8015 26.9853 76.8799 26.9853C62.8281 26.9853 133.087 26.9853 119.035 26.9853C100.976 26.9853 82.917 26.9853 64.8578 26.9853C49.6089 26.9853 125.853 26.9853 110.604 26.9853C80.6245 26.9853 50.9197 29.1412 20.9848 30.3281C15.4712 30.5467 32.0181 30.3281 37.5348 30.3281C48.6025 30.3281 39.5532 30.3281 33.7876 30.3281C13.7575 30.3281 31.7665 33.6708 40.6574 33.6708C58.3993 33.6708 30.8008 33.7543 31.6018 35.3422C34.7705 41.624 56.1843 37.0136 50.0253 37.0136C44.4528 37.0136 18.3938 37.0136 37.2225 37.0136C43.563 37.0136 66.9688 37.0136 65.3262 37.0136C58.9792 37.0136 28.9862 37.0136 50.9621 37.0136C65.8644 37.0136 109.234 41.6127 95.6157 34.4137C81.2324 26.8101 52.6945 33.6708 37.5348 33.6708C26.5827 33.6708 18.4431 29.4705 8.33818 26.7996C-4.8008 23.3267 8.19477 20.2998 14.7396 20.2998C34.204 20.2998 91.5983 27.621 73.1327 20.2998C66.295 17.5887 36.5379 22.5567 32.5386 16.2141C31.6491 14.8035 54.9218 13.439 55.1776 13.4285C60.1839 13.2232 85.6089 9.00798 84.3742 8.60005C64.9317 2.17622 40.496 6.92867 20.3603 6.92867C7.86978 6.92867 45.3413 6.92867 57.8319 6.92867C63.7314 6.92867 45.8943 6.81422 40.189 8.60005C35.2601 10.1429 58.1018 10.2714 60.6422 10.2714C90.099 10.2714 119.556 10.2714 149.013 10.2714C151.719 10.2714 143.6 10.2714 140.894 10.2714C136.21 10.2714 150.262 10.2714 154.946 10.2714C166.238 10.2714 209.248 10.2714 175.399 10.2714C171.053 10.2714 159.31 10.2714 171.183 10.2714C187.577 10.2714 203.971 10.2714 220.365 10.2714C249.318 10.2714 199.518 8.86348 212.402 11.0143C220.514 12.3686 228.556 13.6142 236.759 13.6142C241.015 13.6142 235.352 13.6142 235.509 13.6142C263.729 13.6142 291.936 13.7471 320.133 15.2856C328.391 15.7362 337.144 15.92 345.426 16.957C346.609 17.105 342.589 17.3152 342.147 18.6284C341.693 19.9785 369.639 20.2998 370.875 20.2998C384.572 20.2998 397.753 23.6425 411.47 23.6425C445.5 23.6425 479.6 26.9853 513.423 26.9853C528.382 26.9853 543.511 30.3281 559.638 30.3281" stroke="black" stroke-width="5" stroke-linecap="round"/>
</svg>
