<svg width="116" height="121" viewBox="0 0 116 121" fill="none" xmlns="http://www.w3.org/2000/svg">
<path d="M1.08551 5.60992V15.5621" stroke="black" stroke-linecap="square"/>
<path d="M13.0281 38.7837V50.7262" stroke="black" stroke-linecap="square"/>
<path d="M55.1587 101.15V113.756" stroke="black" stroke-linecap="square"/>
<path d="M90.3229 69.3036V81.9096" stroke="black" stroke-linecap="square"/>
<path d="M2.41248 9.25906C2.41248 12.7244 2.76159 7.94167 3.26025 7.15806C3.79472 6.31817 4.11969 9.78378 4.32918 9.44336C4.36815 9.38003 4.44565 13.1349 4.47662 13.8665C4.49715 14.3515 4.69958 18.5897 4.75307 17.9211C4.94977 15.4623 5.39811 13.0588 5.39811 10.586C5.39811 10.1202 5.39811 10.91 5.39811 11.0283C5.39811 12.3349 5.62153 8.42466 5.71142 7.1212C5.72591 6.91115 5.91978 4.97227 6.04316 6.14441C6.17918 7.43662 6.74323 8.49625 7.13052 9.73824C7.8062 11.9051 8.45581 14.0489 9.48954 16.0781C9.70964 16.5101 9.78706 12.0419 9.91343 11.1573C9.9736 10.7362 11.0641 6.63204 11.2957 7.74781C11.7766 10.065 11.874 12.4499 12.1987 14.788C12.222 14.9552 12.2999 16.573 12.383 15.6174C12.5533 13.6594 12.8999 11.6687 13.5441 9.81196C13.9709 8.58195 13.8945 10.0658 13.9496 10.7334C14.0294 11.7013 13.868 14.6008 14.0417 13.6454C14.3145 12.1451 14.8395 10.7134 14.9816 9.18534C15.0471 8.48118 15.852 6.67328 15.2765 7.08434C14.1359 7.89906 15.0185 13.8384 15.0185 15.3041C15.0185 16.2885 15.0545 13.3003 15.3871 12.3737C15.5828 11.8285 16.3455 8.35843 16.3455 10.1068C16.3455 11.9252 16.3455 13.7437 16.3455 15.5621C16.3455 18.3541 16.3598 11.8506 16.3639 11.6181C16.4097 8.9826 16.0037 5.31555 17.1564 2.84547C17.5903 1.91556 17.5815 5.73285 17.5987 6.05226C17.7613 9.08155 17.3359 12.2363 18.0226 15.2119C18.1633 15.8218 18.9204 18.6129 18.9256 18.5846C19.3069 16.5149 18.5502 14.0638 18.4096 11.9867C18.3125 10.5512 18.3359 9.11174 18.3359 7.67409C18.3359 0.670743 18.3359 21.6808 18.3359 28.6841C18.3359 31.0317 18.5202 23.9915 18.5202 21.6439C18.5202 20.1757 18.4669 18.7033 18.3543 17.2392C18.2242 15.5477 18.4389 20.6313 18.5202 22.3258C18.7099 26.282 18.9994 30.2321 18.9994 34.1947C18.9994 36.1072 18.9692 30.3619 18.7413 28.463C18.2038 23.9839 18.2741 37.4797 18.3359 41.9905C18.3471 42.8119 18.3359 43.2425 18.3359 42.0642C18.3359 40.7495 18.4912 36.8171 18.3174 38.1202C17.9063 41.2039 17.6045 44.3038 17.4144 47.4089C17.162 51.5309 16.8816 47.0388 16.6956 45.4737C16.3936 42.9319 16.3455 40.3988 16.3455 37.8438C16.3455 37.1987 16.3455 39.1339 16.3455 39.7789C16.3455 40.2447 16.6196 41.9243 16.2717 42.3591C15.9086 42.813 16.5245 37.7027 16.6588 38.71C16.9022 40.5359 16.425 42.5357 16.3639 44.368C16.3166 45.7863 16.3455 50.0444 16.3455 48.6253C16.3455 47.4521 16.0829 45.9638 16.4192 44.8287C16.482 44.6166 17.1004 47.6247 17.1564 48.0724C17.1999 48.421 17.4231 51.0434 17.5065 50.7263C17.7629 49.752 17.6851 48.6171 17.7461 47.63C17.9278 44.6935 18.3481 41.802 18.7782 38.8943C19.2491 35.7107 19.118 37.4434 19.4785 39.7421C20.0332 43.2781 20.3263 46.7452 20.3263 50.3208C20.3263 53.0371 20.3896 44.8865 20.5475 42.1748C20.8149 37.5802 21.6533 33.0315 21.6533 28.4261C21.6533 24.519 21.6533 44.0546 21.6533 40.1475C21.6533 29.0038 21.985 17.8502 21.985 6.71574C21.985 -0.0787382 21.9425 20.3048 21.985 27.0992C22.01 31.0954 22.2209 35.1049 22.6485 39.0786C22.7163 39.7086 22.6604 41.1297 22.9618 41.7325C23.2255 42.26 22.9802 40.553 22.9802 39.9632C22.9802 37.9315 22.9896 36.4226 22.9433 34.3421C22.8226 28.9099 22.3733 23.5029 22.2983 18.0685C22.2245 12.7182 21.4103 7.03424 22.0587 1.70282C22.0778 1.54603 22.0787 1.37146 22.1693 1.24207C22.3822 0.937887 22.4365 1.94257 22.4826 2.311C22.7673 4.58822 22.878 6.89865 23.0539 9.18534C23.4856 14.7972 23.6494 20.4205 24.3072 26.0118C24.77 29.9456 25.6341 34.1304 25.6341 38.0834C25.6341 40.0861 25.6341 42.0888 25.6341 44.0915C25.6341 45.1601 25.6206 46.2298 25.6341 47.2983C25.644 48.0801 25.6708 48.8639 25.7815 49.6389C25.9052 50.5041 25.6003 47.8978 25.4314 47.0403C24.9784 44.7406 24.4641 42.5084 24.1413 40.1844C23.9249 38.6266 23.8934 39.0489 23.7174 40.3687C23.6023 41.2322 23.5349 42.0591 23.3857 42.912C23.1673 44.1597 23.9386 45.2596 23.9386 46.4505C23.9386 56.8973 22.2016 25.2603 24.7126 15.1198C25.2853 12.8068 25.6072 14.1568 25.6341 15.7095C25.7258 20.9987 26.175 26.2711 26.316 31.5592C26.3793 33.9316 26.8349 36.2661 26.9426 38.6363C27.0084 40.0832 27.3312 40.4109 27.2191 38.6731C26.8174 32.4465 26.756 26.2171 26.4819 19.9852C26.3233 16.3796 26.6293 12.9063 26.6293 9.33278C26.6293 8.58934 26.7929 5.51276 26.9611 5.75739C29.5501 9.52321 29.5359 15.649 29.5965 19.9852C29.6584 24.4073 29.615 28.8322 29.615 33.2547C29.615 35.1653 29.615 37.0759 29.615 38.9864C29.615 42.3222 28.6557 45.9967 29.2832 49.2519C29.3112 49.3968 29.6789 51.2247 29.7624 51.0949C30.3435 50.191 30.4695 48.7118 30.5733 47.7406C31.0652 43.1378 30.9419 38.4658 30.9419 33.8445C30.9419 29.5831 31.2736 25.3709 31.2736 21.1279C31.2736 18.3531 31.6279 15.4955 32.5822 12.8713C32.8755 12.0648 33.2353 11.2724 33.3931 10.4201C33.5077 9.80146 32.7253 8.03886 33.0798 8.55873C34.1467 10.1235 33.6338 13.2117 33.4484 14.9355C33.1291 17.9032 32.3946 20.7596 32.2873 23.7634C32.2072 26.0066 32.2689 28.2636 32.2689 30.5087C32.2689 33.3495 33.4827 35.9552 33.5958 38.7837C33.6902 41.1428 34.6257 43.6323 35.2729 45.8976C35.5039 46.706 35.9972 48.8409 35.7705 46.5242C35.1545 40.2275 34.9232 33.9255 34.5726 27.6152C34.441 25.246 33.4127 22.8102 33.0061 20.4644C32.5228 17.6761 32.0594 14.5406 32.2873 11.6918C32.37 10.6576 33.3642 7.42261 34.2593 6.86318C34.5242 6.69762 34.6025 6.39142 34.849 6.1997C34.936 6.13205 35.8853 14.3556 35.918 15.0092C36.2558 21.7659 36.9616 28.5266 37.2265 35.282C37.4008 39.7272 37.5767 44.3469 37.5767 48.7727C37.5767 49.5897 37.5767 50.4068 37.5767 51.2239C37.5767 52.1995 37.8292 48.0773 37.8347 47.9249C38.0422 42.1153 37.5767 36.2724 37.5767 30.4534C37.5767 25.0043 37.5767 19.5552 37.5767 14.1061C37.5767 12.7499 37.237 10.8606 37.6504 9.51708C37.6993 9.35815 37.9232 8.25405 38.1111 8.33757C39.7006 9.044 39.1424 15.3582 39.3091 16.7047C39.9248 21.6802 40.2306 26.4734 40.2306 31.4855C40.2306 35.6221 40.7709 39.7073 40.894 43.8335C40.9361 45.2418 41.3072 49.374 41.6128 47.9986C43.1122 41.2515 42.7251 34.3584 42.8845 27.5046C42.9543 24.501 43.5585 21.5217 43.6585 18.5109C43.7713 15.1141 43.5479 11.7008 43.5479 8.30071C43.5479 7.24406 43.5479 6.18742 43.5479 5.13077C43.5479 4.01945 44.0544 7.66444 44.064 7.74781C44.771 13.9146 44.5782 19.9799 46.552 25.9012C48.4622 31.6318 48.6646 37.91 49.8694 43.8335C50.2786 45.8456 51.7644 51.7518 50.8462 49.9153C50.2927 48.8083 49.9172 47.2801 49.7404 46.0819C48.9468 40.7034 48.6455 35.2107 47.9895 29.8084C47.5496 26.1852 46.2137 22.631 45.907 19.0269C45.6196 15.6501 45.7376 12.1687 45.6121 8.77988C45.5311 6.59382 46.1833 0.152705 45.4646 2.21885C45.089 3.29892 45.2374 5.10537 45.2066 6.14441C45.0893 10.1043 44.9682 14.0584 44.7274 18.0132C44.2303 26.1807 44.5431 34.4153 44.5431 42.5987C44.5431 44.1954 45.1061 44.7114 45.6121 46.2294C46.0711 47.6066 46.9771 50.1884 46.7916 47.2614C46.334 40.0419 46.621 32.9113 47.6947 25.7538C48.2732 21.897 48.7221 18.1846 48.8557 14.3088C48.9052 12.8738 49.1875 11.4018 49.1875 9.90411C49.1875 8.91244 48.9072 7.25403 49.7035 6.45772C50.2201 5.94108 50.5648 6.59452 50.6619 7.06591C51.3335 10.328 51.1591 14.0181 51.1779 17.3313C51.2007 21.3427 50.6049 25.3948 51.012 29.3845C51.3567 32.7627 51.6631 36.0111 52.2468 39.3735C52.5706 41.2381 52.6777 43.0038 52.855 44.8656C52.972 46.0938 54.0857 47.0404 54.1635 48.441C54.7086 58.2528 54.7212 28.6346 52.8366 18.99C51.8784 14.0866 53.32 9.7027 53.5001 5.02019C53.681 0.315133 55.418 14.2544 55.9328 18.9347C56.7008 25.9166 57.7709 33.0933 57.8126 40.1107C57.8393 44.5797 58.9977 48.5357 59.7846 52.8641C59.9343 53.6872 59.682 51.1938 59.6556 50.3577C59.5409 46.7257 59.7071 43.0563 60.1348 39.4472C60.745 34.299 59.1033 29.5514 58.8263 24.4268C58.5913 20.0786 59.1396 15.6952 59.1396 11.3969C59.1396 9.18662 58.8079 7.01633 58.8079 4.7806C58.8079 4.52507 58.7055 3.90845 59.158 4.17242C60.7668 5.11088 61.1116 8.99146 61.3143 10.5492C61.4914 11.91 61.2219 13.4183 61.5355 14.7512C62.1487 17.3575 62.7887 19.6806 62.7887 22.3811C62.7887 26.0157 63.8394 29.4425 64.0972 33.052C64.2908 35.7617 64.4474 38.4981 64.4474 41.2164C64.4474 42.5161 65.4426 43.5838 65.4426 44.6628C65.4426 46.8928 65.4426 49.1229 65.4426 51.3529C65.4426 52.4464 65.4426 53.5399 65.4426 54.6334C65.4426 56.2786 64.8154 51.4007 64.6133 49.7679C64.2395 46.749 63.6259 43.5979 63.9498 40.553C64.153 38.6432 63.4682 37.1397 63.4522 35.3189C63.4157 31.1557 64.1157 27.0411 64.1157 22.8787C64.1157 19.7626 64.2388 16.5342 64.7976 13.4611C64.8785 13.0161 65.3949 11.8472 65.7006 11.5075C66.2051 10.947 66.69 9.15234 66.8064 10.5492C67.5893 19.9438 67.7648 29.1855 67.7648 38.5994C67.7648 41.5359 67.7648 44.4724 67.7648 47.4089C67.7648 56.8499 64.8196 28.7365 64.1157 19.3218C63.8908 16.3141 63.4522 13.4866 63.4522 10.4754C63.4522 9.0643 63.6364 8.10435 64.1894 6.7526C64.5172 5.95134 65.4473 4.35543 66.2535 4.13556C67.5609 3.77899 68.3931 15.1269 68.4283 16.8153C68.5578 23.0341 69.0917 29.2521 69.0917 35.5032C69.0917 37.9173 70.1817 40.3626 69.6815 42.8014C69.1152 45.5622 70.0869 48.3645 70.0869 51.187C70.0869 52.2498 70.0869 53.3126 70.0869 54.3754C70.0869 59.315 69.4984 44.4365 70.2712 39.5578C70.696 36.8765 70.4187 34.0005 70.4187 31.3012C70.4187 26.4538 70.7504 21.6271 70.7504 16.7784C70.7504 14.1899 70.9025 11.5982 71.4876 9.11162C71.5297 8.93294 71.7456 7.55663 71.7456 8.11641C71.7456 11.2188 71.7456 14.3211 71.7456 17.4235C71.7456 24.1462 72.0329 30.8519 72.0774 37.5673C72.1163 43.4459 72.0774 49.326 72.0774 55.2047C72.0774 61.2436 72.0774 43.127 72.0774 37.0882C72.0774 27.6866 71.6068 18.2267 72.8883 8.89046C73.1022 7.33212 73.0726 5.77737 73.0726 4.20928C73.0726 3.73743 73.0461 3.27215 73.1463 2.80861C73.2472 2.34188 73.3383 1.88403 73.3859 1.40794C73.4827 0.439777 73.5179 3.34944 73.5886 4.31986C73.9317 9.02487 74.703 13.7132 74.7313 18.4371C74.7563 22.6207 75.2356 27.2013 74.5654 31.3565C74.1524 33.9169 74.0678 36.6679 74.0678 39.2629C74.0678 40.7694 74.7145 44.2481 73.8098 45.4922C73.5518 45.8469 73.5854 48.8572 74.0862 47.1877C75.3449 42.9922 74.5954 38.1621 74.7681 33.8445C74.8562 31.643 75.7088 29.7105 76.1319 27.5783C76.7985 24.2199 76.6966 20.7238 77.5326 17.4051C77.8735 16.0518 78.6242 14.4978 78.362 13.0556C78.0526 11.3542 77.7169 9.86553 77.7169 8.11641C77.7169 7.26968 77.6238 6.39994 77.9749 5.60995C78.0027 5.54752 78.1748 8.55212 78.2145 9.14848C78.6068 15.0325 78.7121 20.8712 78.7121 26.7674C78.7121 32.8144 79.0439 38.8489 79.0439 44.9024C79.0439 46.1757 79.1145 47.465 79.0439 48.7358C78.9637 50.1791 77.6167 46.2516 77.551 45.9161C76.345 39.7517 75.9788 33.5211 76.0582 27.2466C76.1132 22.9069 76.7217 18.5924 76.7217 14.2351C76.7217 13.0485 76.4562 9.00848 77.4589 8.00583C77.8117 7.65303 78.1851 8.72621 78.3804 9.18534C80.0422 13.0929 81.091 16.6622 81.5135 20.9252C81.8286 24.1054 82.286 27.1057 82.9878 30.2138C83.7678 33.6678 83.5407 37.6836 83.5407 41.2164C83.5407 43.8205 82.8336 46.2048 82.693 48.7358C82.6557 49.4066 81.994 50.0295 81.7715 50.6525C80.5809 53.9861 81.2481 58.6946 81.3844 62.1712C81.4674 64.2868 83.2295 59.2383 83.3012 59.0013C84.0738 56.4457 83.963 54.0091 84.0199 51.3897C84.0787 48.6859 85.0671 46.0746 85.3653 43.3912C85.917 38.4259 86.3421 33.5769 86.3421 28.5736C86.3421 23.1487 87.0056 17.7955 87.0056 12.3921C87.0056 11.9848 86.932 11.3685 87.0793 12.2078C87.5783 15.0525 88.0008 17.7865 88.0008 20.6856C88.0008 24.999 88.1449 29.2537 88.5905 33.5496C88.8609 36.1556 89.5595 38.9239 89.1618 41.5482C88.7357 44.361 88.6642 47.1405 88.6642 49.9891C88.6642 52.6614 88.2046 60.6353 88.6827 58.0061C89.262 54.8198 89.5051 51.4864 89.6226 48.2567C89.7356 45.1479 90.2284 42.1374 90.3967 39.0417C90.6883 33.6752 90.6547 28.3058 90.6547 22.934C90.6547 20.487 91.032 19.7586 91.8342 17.5525C92.1742 16.6174 92.748 15.7579 93.0506 14.8249C93.3774 13.8172 93.0847 11.5102 93.8062 10.7887C93.9598 10.6352 93.9213 11.2178 93.8983 11.4338C93.6836 13.4522 93.3999 15.4713 93.1058 17.4788C92.2925 23.0309 91.3467 28.3259 91.3181 33.9551C91.299 37.7273 90.6321 41.6736 91.0601 45.4185C91.6143 50.2675 91.3181 55.3722 91.3181 60.2729C91.3181 63.2092 91.6499 66.1341 91.6499 69.0824C91.6499 71.9542 91.7776 74.745 91.0048 77.4496C90.6009 78.8634 90.6588 80.0206 90.968 81.412C90.9953 81.535 90.9561 82.3424 91.0048 81.928C91.5353 77.4194 91.6324 72.881 91.6499 68.3452C91.6752 61.7595 91.6615 55.4587 92.7925 48.9386C93.6469 44.0137 92.931 39.1142 94.1563 34.25C95.45 29.1144 95.8556 23.7669 97.142 18.6214C97.7549 16.1698 96.9108 13.8472 98.2478 11.5075C98.9105 10.3477 97.9505 14.1626 97.787 15.4884C97.3453 19.0709 97.2894 22.6477 97.2894 26.2514C97.2894 33.9121 97.2894 41.5728 97.2894 49.2334C97.2894 53.2506 96.7162 57.2134 96.6259 61.2313C96.5083 66.4644 95.868 71.6435 95.9625 76.9335C95.9839 78.1351 96.2556 79.3108 96.2942 80.5089C96.3376 81.8555 95.6762 83.3898 95.428 84.6741C93.7216 93.5028 92.3134 102.307 92.3134 111.305C92.3134 113.289 92.3588 115.192 92.0553 117.147C91.9648 117.731 91.8701 119.007 91.1707 117.958C89.5425 115.516 88.6036 112.73 87.669 109.978C87.2266 108.676 87.1276 106.722 86.4711 105.555C86.0422 104.793 82.7387 112.407 82.4718 112.945C82.3707 113.149 79.4773 118.23 79.3756 118.106C78.9726 117.613 78.9498 116.382 78.8411 115.839C78.5182 114.224 77.9357 112.689 77.5879 111.084C77.2813 109.669 77.271 108.224 77.035 106.808C76.8819 105.89 74.9564 110.585 74.8787 110.844C74.744 111.295 73.8416 116.439 72.9989 114.272C72.265 112.385 72.4294 108.315 70.9347 106.956C70.784 106.819 69.0573 112.923 68.6863 111.913C67.6806 109.178 68.0965 105.806 68.0965 102.938C68.0965 102.652 67.1006 105.203 66.917 105.721C66.2268 107.666 66.1575 109.915 64.7791 107.159C64.0084 105.617 63.0138 106.591 62.4385 107.804C61.7607 109.232 61.2275 110.774 60.7614 112.282C60.7562 112.299 60.1184 115.98 59.8031 114.162C59.1173 110.208 59.713 106.105 59.9874 102.146C60.1586 99.6753 59.7063 99.8047 58.9553 101.648C58.5898 102.545 57.5193 104.141 58.5498 105.058C58.7273 105.215 59.3198 104.304 59.4713 104.21C60.3409 103.666 60.2267 106.75 60.2823 107.251C60.3953 108.268 60.1851 109.226 60.6508 110.199C61.4269 111.822 62.5879 107.677 62.7887 107.269C62.8997 107.044 64.1783 103.935 64.5211 103.878C65.5063 103.714 66.4838 109.894 66.5668 110.55C66.6587 111.275 66.6183 113.42 66.8433 112.724C67.3969 111.013 67.4421 108.965 67.7648 107.195C67.9922 105.948 68.1204 104.63 68.4283 103.399C68.6379 102.56 69.1286 105.009 69.2207 105.868C69.3677 107.24 69.4078 108.619 69.4235 109.997C69.4253 110.162 69.3447 111.297 69.4603 110.199C69.6612 108.291 69.946 106.328 70.6767 104.541C71.4769 102.585 70.7417 108.768 70.7504 110.881C70.7573 112.558 70.6865 114.301 70.9347 115.968C71.2399 118.017 72.2 112.012 72.5934 109.978C72.6038 109.924 74.5122 99.7998 74.8971 99.9709C76.3131 100.6 75.535 107.236 76.1319 108.707C76.4392 109.464 77.8744 105.011 78.0486 104.357C78.1278 104.061 78.3098 103.974 78.5278 104.32C79.6594 106.118 79.72 108.744 79.8916 110.771C79.9854 111.878 79.6979 114.562 80.3892 115.599C80.9673 116.467 80.9241 113.576 81.0343 112.54C81.3763 109.322 81.9431 105.904 82.8588 102.791C83.3029 101.281 82.9962 105.935 83.0431 107.509C83.0671 108.31 83.0383 109.377 83.3564 110.144C83.4574 110.388 84.2018 106.54 84.2411 106.348C84.5472 104.847 85.3469 100.356 85.3469 101.888C85.3469 107.425 85.3796 112.962 85.6786 118.493C85.8887 122.379 86.3757 119.454 86.7475 117.258C87.2246 114.441 87.5973 111.61 87.9823 108.78C88.2315 106.949 88.4209 101.562 88.9776 103.325C89.148 103.865 89.1508 108.19 89.5489 106.163C90.2889 102.396 90.6757 98.555 91.5024 94.8105C91.9724 92.6819 91.6519 97.8397 91.6499 98.0542C91.6288 100.341 91.5252 102.614 91.3181 104.892C91.195 106.246 90.8699 109.323 91.0417 105.371C91.4565 95.8296 92.5056 86.3321 94.0826 76.9151C94.2586 75.8642 95.3333 67.4541 95.299 73.2107C95.2688 78.2904 94.8105 83.3581 94.783 88.4338C94.7784 89.2817 94.7421 90.3538 94.9673 91.1982C95.4786 93.1159 95.9787 87.3574 96.3679 85.4113C98.277 75.8657 99.8076 66.2558 101.326 56.6422C101.948 52.7007 101.736 56.9385 101.713 57.8033C101.516 65.1872 100.868 72.5334 100.164 79.8823C99.9354 82.2769 99.6484 84.696 99.6484 87.1068C99.6484 87.7647 99.7705 88.8704 100.164 87.328C104.304 71.1213 103.727 53.5011 104.403 36.9223C104.577 32.6621 105.29 19.9955 104.256 24.132C103.87 25.6764 103.798 27.4483 103.666 29.0159C103.096 35.7949 102.929 42.6096 102.524 49.3993C101.745 62.443 100.254 75.4777 99.9433 88.5443C99.8441 92.7134 100.032 97.0051 99.2614 101.114C98.4646 105.363 99.2395 109.755 98.3584 113.941C98.2788 114.318 98.5986 109.916 98.6164 109.591C98.8071 106.098 98.8038 102.594 99.0587 99.1047C99.5208 92.7795 100.774 86.5589 101.878 80.3246C103.066 73.623 104.42 66.9064 105.343 60.1623C105.564 58.5528 105.369 56.8389 105.73 55.26C106.546 51.6904 108.103 48.085 108.31 44.4601C108.449 42.0371 108.9 39.5468 108.9 37.125C108.9 36.7866 108.716 37.7762 108.624 38.1018C107.917 40.5952 106.976 43.0237 106.523 45.5843C105.745 49.9781 106.504 54.5498 106.025 58.9828C105.448 64.3217 103.957 69.4872 102.929 74.7404C100.809 85.5739 97.0002 118.454 97.658 107.435C98.4785 93.6925 100.252 79.6049 103.408 66.2073C104.02 63.6093 104.886 60.9725 104.919 58.2825C104.923 57.9582 104.67 54.735 105.085 54.6518C105.413 54.5863 105.696 70.0088 105.693 70.3356C105.612 79.1849 105.251 88.0239 105.251 96.8746C105.251 97.747 105.208 100.363 105.251 99.4917C106.011 84.1358 108.289 68.9084 108.624 53.5092C108.698 50.0991 108.601 46.6901 108.568 43.2806C108.56 42.3759 109.042 39.9316 108.403 40.5714C108.057 40.9173 107.945 44.4725 107.942 44.497C107.084 51.7365 105.995 58.9409 105.362 66.2073C104.806 72.584 104.233 79.0694 103.943 85.4666C103.879 86.8596 103.596 89.5707 104.33 90.7928C105.034 91.9661 104.618 88.0689 104.661 86.7014C104.949 77.7165 105.625 68.9315 107.813 60.1808C107.823 60.1397 108.415 56.9601 108.827 56.6607C108.916 56.5952 108.863 56.8812 108.863 56.9924C108.863 58.3874 108.773 59.7811 108.753 61.176C108.639 68.9437 108.454 76.8525 109.158 84.6003C109.177 84.8092 109.197 85.018 109.214 85.227C109.241 85.5675 109.232 85.7571 109.232 85.098C109.232 82.3323 109.366 79.5801 109.601 76.8229C110.131 70.5845 111.554 64.2401 111.554 57.9692C111.554 53.7834 111.828 66.3362 111.96 70.5199C112 71.8148 112.218 80.5592 112.218 74.3349C112.218 68.6001 112.086 62.7992 112.863 57.103C113.198 54.643 113.208 56.5393 113.213 57.5084C113.227 60.5613 113.282 63.6898 112.881 66.7234C112.684 68.2173 112.707 69.3427 112.807 70.8885C112.85 71.541 112.715 75.043 112.9 72.6394C113.011 71.1942 114.066 70.0372 114.208 68.7138C114.358 67.3123 115.203 67.2069 115.203 66.3179" stroke="black" stroke-linecap="square"/>
<path d="M15.5842 39.7946C15.4098 40.6447 15.4211 41.5067 15.2005 42.3521C15.1064 42.713 14.9448 42.9011 14.9448 43.2686C14.9448 44.0048 14.6397 44.4872 14.554 45.1726C14.3492 46.811 13.8096 48.9127 14.1846 50.6003C14.4255 51.6841 14.8288 50.302 14.9164 49.897C15.1049 49.025 14.9448 47.8918 14.9448 47.0268C14.9448 45.4591 15.0727 43.8849 15.0727 42.3521" stroke="black" stroke-linecap="square"/>
<path d="M3.05199 10.766C2.99582 11.9455 2.64529 13.0392 2.54758 14.2116C2.51989 14.5439 2.32973 15.4964 2.46943 14.5384C2.66672 13.1856 2.66836 11.6382 2.66836 10.2687C2.66836 8.72705 2.92411 4.10919 2.92411 5.65083" stroke="black" stroke-linecap="square"/>
<path d="M89.754 68.1837C89.8472 68.016 90.5213 66.9854 90.5213 67.5443" stroke="black" stroke-linecap="square"/>
<path d="M57.017 106.292C57.0393 107.494 57.3796 108.733 57.2656 109.929C57.2027 110.59 56.9963 111.204 56.8962 111.854C56.8195 112.353 56.7612 112.802 56.7612 113.325C56.7612 113.453 56.8549 113.948 56.9602 113.602C57.2144 112.767 57.2727 111.863 57.2727 110.995C57.2727 109.97 57.3442 108.915 57.2159 107.897C57.1476 107.355 56.9354 106.841 56.8962 106.292C56.857 105.742 57.0027 105.23 57.017 104.686C57.0297 104.204 57.3402 103.854 57.3935 103.4C57.4728 102.726 57.4338 102.191 57.4006 101.56C57.3853 101.269 57.4006 99.889 57.4006 100.921" stroke="black" stroke-linecap="square"/>
<path d="M100.183 30.9494C100.054 29.785 98.9845 28.6956 98.6082 27.5668C97.9869 25.7028 98.1962 24.2647 98.4138 22.4151C98.5724 21.0669 98.4819 20.4618 99.483 19.4018C101.053 17.7399 100.533 21.6451 100.533 22.7455C100.533 24.9683 100.62 27.2042 100.338 29.4136C100.105 31.2448 100.204 33.7292 99.2109 35.343C98.7227 36.1363 98.8287 36.7278 98.7638 37.6369C98.5481 40.6561 97.1269 43.116 96.7614 46.113C96.4677 48.5214 95.6889 50.6497 95.6338 53.0726C95.5949 54.7856 95.3543 56.028 95.6144 57.7189C95.7105 58.3433 95.6153 59.0134 95.6338 59.6435C95.6553 60.3722 96.1764 60.5978 96.3143 61.2182C96.5263 62.1722 97.5901 62.093 98.4333 62.093C100.28 62.093 99.833 60.4071 99.833 58.9825C99.833 56.477 99.4166 54.2931 98.9582 51.8479C98.3648 48.6833 98.4333 45.5415 98.4333 42.3415C98.4333 40.7604 98.4333 39.1792 98.4333 37.598C98.4333 36.6354 100.263 34.1792 99.833 33.7488" stroke="black" stroke-linecap="square"/>
<path d="M81.9867 16.9523C81.9867 20.6818 81.8173 24.3141 81.6173 28.0139C81.4651 30.8305 81.7488 33.5657 81.6173 36.3927C81.537 38.1192 81.4016 40.901 80.2759 42.3804C79.2161 43.7734 77.9865 46.6962 76.0379 46.6962C72.5196 46.6962 72.8042 53.0043 75.8629 54.1807C76.7513 54.5224 77.9301 53.1662 78.4096 52.6644C81.3356 49.6023 82.8357 45.6913 84.9805 42.1082C87.5251 37.8573 88.7828 32.9484 91.007 28.4999C91.7952 26.9237 91.6541 24.7006 90.8904 23.1732C90.4679 22.3282 88.8245 15.5753 87.9549 17.7494C86.8659 20.4719 87.5855 24.4051 87.5855 27.2557C87.5855 31.0727 87.7645 34.8429 88.0132 38.6478C88.3988 44.5467 88.9142 50.3756 89.7629 56.222C90.0287 58.0531 91.4347 59.8311 91.4347 61.5681C91.4347 63.4238 92.5189 65.5535 92.815 67.478C92.9531 68.3753 92.6769 69.5377 93.2621 70.3358C93.6575 70.8749 94.6899 67.7266 94.7396 67.478C95.2046 65.153 94.9147 62.6193 94.934 60.2656C94.9924 53.1417 96.9836 45.9358 98.5888 39.0561C98.7926 38.1828 99.0087 37.408 99.3859 36.5871C100.12 34.9887 100.637 32.8235 101.583 31.3771C102.37 30.1731 102.492 34.065 102.496 34.0988C102.947 37.8581 103.682 41.565 104.304 45.2965C105.152 50.3849 106.06 55.9135 105.237 61.0821C104.537 65.4847 103.28 69.9257 102.108 74.2238C99.5806 83.4893 96.3534 92.5296 93.962 101.829C93.1335 105.051 92.8345 107.88 92.8345 111.2C92.8345 113.329 95.0516 108.819 95.1284 108.633C96.8909 104.374 99.1683 100.32 101.233 96.1916C102.54 93.578 103.069 90.6142 104.402 87.9488C104.643 87.4664 105.782 83.6809 105.782 84.7217C105.782 87.6789 105.432 96.5438 105.432 93.5865" stroke="black" stroke-linecap="square"/>
<path d="M3.49384 17.2839C6.29726 17.2839 9.08949 17.902 11.8377 17.902" stroke="black" stroke-linecap="square"/>
<path d="M5.6571 15.1207C8.98117 15.1207 11.4156 15.6073 13.9838 17.7475C14.3568 18.0582 14.5654 18.7417 14.6191 19.2068C14.7221 20.1 15.8032 20.674 15.8552 21.6104C15.9452 23.2299 17.0497 25.054 17.4175 26.7094C17.6669 27.8318 18.0184 29.0685 18.0184 30.229C18.0184 30.8585 18.0184 31.488 18.0184 32.1175C18.0184 33.1234 17.196 33.6479 17.0913 34.5898C17.0296 35.1452 15.8552 35.7681 15.8552 36.5985C15.8552 37.0548 15.5594 37.1227 15.3058 37.4397C15.1752 37.603 15.2371 37.9158 15.2371 38.1093C15.2371 38.6644 15.2371 36.9991 15.2371 36.444" stroke="black" stroke-linecap="square"/>
<path d="M13.8676 36.5478C13.787 36.8098 13.5738 37.0619 13.4386 37.2986" stroke="black" stroke-linecap="square"/>
<path d="M82.2942 62.0737C82.5043 62.1204 82.6173 62.4758 82.7887 62.61C83.0915 62.8469 83.4163 63.0526 83.7004 63.3131C84.1136 63.6918 84.6899 64.0612 85.19 64.326C85.3897 64.4317 85.4978 64.6064 85.6905 64.7073C85.9784 64.8581 86.0851 65.156 86.3221 65.2853C86.6855 65.4835 86.9352 65.7174 87.1741 66.0361C87.4042 66.3428 87.8234 66.7651 88.1096 67.0073C88.678 67.4883 89.0276 68.2488 89.4801 68.8306C89.9374 69.4186 89.4335 68.313 89.349 68.1513C88.9961 67.4765 88.53 66.8649 88.1454 66.2088C87.5451 65.1849 86.8559 64.2625 86.334 63.1939C86.0512 62.6147 85.8512 61.9943 85.619 61.3944C85.4426 60.9388 85.118 60.5793 84.9814 60.1015C84.937 59.9461 84.2938 58.6863 84.5703 58.7727C85.7972 59.1561 87.0322 59.7564 88.1811 60.3219C89.5041 60.9731 91.0756 61.8456 92.0481 62.9973C92.3807 63.3911 93.5489 64.7617 92.9657 65.3449C92.7728 65.5378 92.5071 65.5301 92.2567 65.4581C90.8337 65.0487 89.3113 64.3736 88.3599 63.1939C87.9358 62.668 87.6394 61.8811 87.341 61.2693C86.9699 60.5086 86.5815 59.7391 86.3698 58.9157C85.7362 56.4519 85.7262 53.7099 85.7262 51.1817C85.7262 50.7073 85.5695 49.8139 85.8335 49.418" stroke="black" stroke-linecap="square"/>
<path d="M90.1235 81.4862C89.5964 82.9795 88.7193 84.1504 87.9308 85.4784C87.3119 86.5207 86.8639 87.5219 86.3339 88.6185C86.1304 89.0395 85.937 89.4929 85.6725 89.8757C85.2675 90.4619 84.8936 91.0709 84.4809 91.6513C84.394 91.7734 84.1911 91.9115 84.1293 92.0505C83.8044 92.7815 83.2093 93.4476 82.747 94.1062C82.3506 94.6707 81.9688 95.2437 81.5195 95.7626C80.956 96.4136 80.313 97.0572 79.8512 97.7885C79.6266 98.1441 78.84 98.3702 78.4807 98.5988C78.0038 98.9024 77.3417 99.111 76.7826 99.1768C76.3582 99.2267 76.0933 99.6827 75.7816 99.9633C75.1653 100.518 76.0756 100.213 76.3953 100.148C77.8785 99.8471 79.2237 99.5745 80.6138 98.9325C81.6161 98.4697 82.6609 97.9964 83.6169 97.4429C84.8292 96.741 85.8194 95.6577 86.7629 94.6424C87.6287 93.7109 88.4054 92.6853 89.3966 91.8777C90.4883 90.9882 91.5493 89.9708 92.2506 88.7317C92.9153 87.5575 93.4894 86.1374 93.9369 84.8587C93.9894 84.7087 94.0763 84.2611 93.8892 84.1675C93.1332 83.7895 92.0711 84.4994 91.5297 84.9421C89.6605 86.4705 88.7065 89.1426 87.5375 91.1866C86.1218 93.6619 84.7375 96.1561 83.2355 98.581C82.204 100.246 80.8808 101.692 79.8333 103.354C79.3199 104.168 78.797 104.938 78.2305 105.713C78.076 105.925 77.9523 106.496 77.7478 106.333C77.6776 106.277 77.7518 106.151 77.7776 106.065C77.8912 105.686 78.0185 105.389 78.2007 105.022C79.5623 102.277 81.7655 99.9589 83.6407 97.5621C84.8458 96.0218 86.211 94.5832 87.3349 92.986C87.5347 92.7022 87.4504 93.6763 87.4303 94.0228C87.3389 95.6002 87.1738 97.1743 87.1204 98.7538C87.1036 99.2517 86.7252 100.381 87.4779 99.6594C88.9343 98.2626 89.9318 96.5651 91.1424 94.9761C92.1331 93.6758 89.1916 97.6011 88.1572 98.867C86.7481 100.591 85.5017 102.179 83.3547 102.948C82.2634 103.34 80.9956 103.526 79.8988 103.02C79.0463 102.627 79.4835 101.284 79.1302 100.577C78.8646 100.046 78.1583 99.9398 77.6287 99.7786C76.0816 99.3078 74.2188 99.8594 72.6891 100.231C72.1793 100.355 71.5047 100.363 70.9791 100.363C70.0521 100.363 68.9862 100.635 68.0892 100.851C66.0939 101.333 64.0844 101.715 62.2083 102.561C61.8754 102.711 61.5671 103.03 61.1894 103.044C60.9571 103.052 60.8097 103.158 60.6293 103.306C60.5182 103.397 59.8794 103.564 60.0811 103.818C60.5208 104.373 61.6742 104.467 62.3096 104.414C64.1631 104.261 65.5808 102.688 67.3921 102.621C68.4398 102.582 69.5683 102.388 70.6096 102.561C72.4802 102.873 74.3216 102.965 75.859 101.757" stroke="black" stroke-linecap="square"/>
<path d="M79.0175 54.3106C78.7359 56.2116 78.1339 58.0342 77.7437 59.9069C77.5768 60.7081 77.702 60.2386 77.702 59.6564C77.702 58.4675 77.7379 57.427 77.3261 56.2944C77.1025 55.6795 75.7505 55.8141 75.2484 55.8141C74.5178 55.8141 74.6537 55.9115 74.4966 56.4615C74.426 56.7085 74.2957 55.4375 74.3191 55.2503" stroke="black" stroke-linecap="square"/>
</svg>
