<svg width="458" height="151" viewBox="0 0 458 151" fill="none" xmlns="http://www.w3.org/2000/svg">
<path d="M0 3C18.9257 26.8097 34.3939 32.1722 56.2697 52.7612C82.8718 77.7985 118.591 90.1504 153.827 97.0104C176.464 101.418 198.253 111.078 220.724 116.696C247.312 123.343 273.932 128.472 300.86 133.42C329.66 138.713 358.37 140.914 387.268 145.266C406.281 148.13 430.049 150.201 448.938 146.312C456.491 144.757 457.287 140.668 451.638 135.511C445.877 130.25 436.066 129.534 428.904 127.671C413.536 123.676 398.092 119.953 382.738 115.912C364.376 111.08 347.315 110.497 328.211 109.553C308.595 108.585 289.214 105.34 269.589 104.763C253.105 104.278 236.683 102.524 220.201 102.062C200.183 101.502 180.34 104.075 160.36 104.676C106.767 106.287 53.553 104.506 0 108.682" stroke="black" stroke-width="5" stroke-linecap="round"/>
</svg>
