<svg width="420" height="146" viewBox="0 0 420 146" fill="none" xmlns="http://www.w3.org/2000/svg">
<path d="M418.185 83.0781C402.757 48.7936 428.018 105.491 412.8 98.0368C392.075 87.8862 407.046 90.6002 393.453 68.1194C390.542 63.3052 395.836 87.007 397.442 90.6572C402.282 101.658 392.869 87.8146 389.863 84.4743C382.983 76.8296 386.425 87.0941 388.367 91.7542C388.432 91.911 367.607 73.7677 363.735 77.9922C358.297 83.9244 367.925 95.2121 359.945 79.488C353.071 65.9422 349.973 71.7544 349.973 83.1779C349.973 86.7422 348.304 76.1078 346.383 73.1057C342.156 66.5015 342.793 74.9256 342.793 78.0919C342.793 91.8849 341.902 77.0011 336.71 71.8092C334.727 69.8268 334.707 89.9611 334.017 88.6627C331.668 84.2412 322.459 72.8913 321.352 85.0726C321.24 86.3028 321.326 94.7633 320.455 93.2501C316.054 85.6076 313.194 77.4435 306.493 71.3106C293.244 59.1843 299.531 77.8029 299.712 86.6682C299.853 93.5971 296.495 85.7643 294.127 82.9784C290.279 78.4514 285.909 68.857 281.063 65.6263C280.302 65.1188 281.33 87.5358 282.16 90.8567C284.339 99.5735 271.186 70.5582 262.415 72.5073C254.646 74.2338 265.737 101.566 259.822 96.2418C258.145 94.7325 244.79 69.5429 244.165 73.6043C243.037 80.9364 246.656 91.912 241.871 98.4357C241.044 99.564 226.479 77.5289 221.827 76.0974C212.374 73.1888 215.983 100.997 214.347 100.53C212.242 99.9285 199.001 68.1017 195.599 73.5046C192.386 78.6077 195.987 96.4307 192.707 83.6765C191.423 78.6838 189.276 70.7037 185.228 67.1222C183.12 65.2577 182.979 79.4756 182.635 80.8842C181.368 86.079 169.334 65.3462 168.075 63.5321C165.795 60.2443 159.013 48.1639 153.914 47.975C147.427 47.7348 152.085 67.4986 150.524 71.0114C149.468 73.3876 124.153 41.3684 120.606 44.7839C117.659 47.6222 119.6 72.7294 116.318 71.909C103.317 68.6587 102.257 42.0498 102.257 71.0114C102.257 75.495 106.628 111.239 94.6778 99.8319C93.702 98.9004 85.9806 89.4435 84.6056 92.6517C82.7108 97.073 84.3065 104.913 84.3065 109.705C84.3065 117.998 74.8557 99.2984 72.5389 97.239C71.8546 96.6307 71.7411 104.729 71.7411 105.716C71.7411 112.728 66.1801 92.8221 63.9626 86.1696C59.4424 72.6089 59.1758 79.7489 59.1758 89.8594C59.1758 91.776 58.2338 81.1107 58.1786 80.6847C57.5847 76.1035 58.4307 57.7503 54.6882 54.7563C52.691 53.1585 53.5018 77.3913 45.2144 67.92C44.5906 67.2071 37.5289 55.9199 36.2392 59.1442C34.7311 62.9144 35.7615 69.0886 35.8403 73.1057C35.9051 76.4113 38.0075 80.8543 34.5438 76.2969C30.4601 70.9234 27.3409 64.0079 22.5769 59.2439C21.8451 58.5121 26.0218 76.8715 26.4661 79.488C28.6843 92.5508 21.3707 81.9261 17.8898 76.9949C9.70101 65.3941 14.2817 83.6098 15.6959 81.8814C19.0867 77.737 16.0948 62.7013 16.0948 56.9503C16.0948 52.5058 19.4574 49.4763 19.6849 45.3822C20.4054 32.4128 26.4794 21.2258 28.7598 8.68351C29.036 7.16457 33.2957 1.66976 33.2474 1.70278C23.3638 8.46524 19.5952 21.858 14.2997 31.9194C8.33765 43.2473 7.43878 54.7758 4.42699 66.823C-0.486111 86.4754 3.89593 110.622 12.1058 127.954C14.9849 134.032 16.4099 139.457 21.8788 143.711C23.018 144.597 19.6849 125.543 19.6849 123.467C19.6849 115.615 16.0948 109.24 16.0948 101.926C16.0948 94.4467 16.0948 86.9674 16.0948 79.488" stroke="black" stroke-width="3" stroke-linecap="round"/>
</svg>
