<svg width="478" height="232" viewBox="0 0 478 232" fill="none" xmlns="http://www.w3.org/2000/svg">
<path d="M41.0154 88.6043C76.379 70.6326 108.333 55.6001 148.656 55.6001C168.324 55.6001 188.519 59.1243 208.193 60.4536C270.2 64.6433 330.731 64.8043 389.285 89.3593C405.808 96.2885 425.22 109.219 423.368 129.59C421.922 145.49 401.39 157.859 390.471 168.203C388.159 170.393 384.793 171.102 381.843 172.085C368.822 176.426 355.837 180.899 342.583 184.489C327.657 188.531 313.474 189.558 298.146 189.558C276.503 189.558 254.875 193.441 233.216 193.441C216.465 193.441 198.767 192.351 181.984 191.392C160.529 190.166 137.815 180.419 116.731 175.968C101.226 172.695 83.7787 165.776 70.2446 157.417C53.8061 147.264 45.3103 135.846 37.564 118.804C24.8982 90.9394 51.0938 79.5744 70.9996 69.6215C87.8956 61.1735 108.345 59.3763 126.869 57.9729C154.962 55.8447 182.982 55.8738 211.106 54.6294C229.088 53.8337 247.801 52.3102 265.789 53.8744C277.69 54.9093 288.998 59.8085 300.95 60.9929C331.991 64.0691 381.946 65.0812 402.875 92.3792C411.885 104.132 412.749 116.468 417.651 130.021C421.207 139.853 416.905 149.505 414.739 159.466C407.042 194.872 365.869 200.652 334.494 199.157C319.912 198.463 305.778 193.792 291.027 193.441C264.594 192.812 237.477 189.961 211.106 187.617C187.385 185.508 164.084 182.881 140.459 180.283C131.118 179.255 121.656 178.921 112.632 175.968C107.86 174.406 104.204 171.155 99.1502 170.144C79.9771 166.309 65.854 129.819 57.5175 114.813C45.8162 93.7511 73.9992 78.0958 88.5803 70.3765C95.2291 66.8565 110.741 66.0284 118.133 65.3072C139.208 63.2511 160.064 63.3658 181.229 63.3658C232.75 63.3658 283.51 72.2677 333.523 84.29C370.299 93.1305 407.327 85.0395 432.536 119.451C443.645 134.617 457.95 151.312 460.255 170.899C461.051 177.663 451.953 182.258 447.635 185.783C434.768 196.287 420.804 205.978 406.866 215.012C369.055 239.519 318.025 216.6 278.085 209.943C249.273 205.141 220.008 203.586 191.799 195.814C159.335 186.87 126.395 182.368 93.2181 176.939C54.3075 170.572 25.1613 144.77 5.20698 112.117C-10.003 87.228 32.9011 69.0871 49.9675 60.3458C67.8712 51.1756 81.8987 44.9044 102.602 44.0594C125.431 43.1276 149.865 44.8452 172.601 47.403C196.847 50.1307 220.676 58.0471 244.757 62.3951C266.206 66.2679 287.507 70.8225 308.932 75.0143C326.905 78.5309 345.632 81.3852 363.291 85.8C370.655 87.6409 383.448 91.6098 389.609 95.9385C417.389 115.46 448.264 147.438 450.655 183.303C451.593 197.372 423.532 204.316 413.445 207.678C394.366 214.038 380.261 217.693 360.056 219.111C337.035 220.726 314.339 220.754 292.322 212.747C270.169 204.692 243.155 202.77 219.842 198.834C196.24 194.849 173.804 186.596 150.382 182.763C126.22 178.809 100.891 174.652 79.4124 162.378C56.5608 149.32 48.5861 122.985 30.8769 104.567C27.361 100.911 24.1249 97.1948 22.0326 92.4871C17.9422 83.2837 39.5556 68.0406 44.8983 63.3658C57.205 52.5974 66.5319 48.0906 82.6481 46.3244C102.877 44.1075 128.165 44.2446 147.901 49.8837C169.976 56.1906 191.072 62.8926 213.586 67.8958C234.414 72.524 256.58 73.5836 276.79 80.8386C296.144 87.7861 318.097 86.6522 338.269 92.4871C353.735 96.9608 367.365 101.879 381.735 108.126C393.597 113.284 404.192 124.637 413.768 133.149C423.904 142.158 427.224 152.403 434.693 163.457C448.331 183.642 413.552 198.474 399.747 200.775C383.93 203.411 370.583 208.302 353.692 208.865C326.871 209.759 301.251 208.693 275.927 199.697C251.345 190.963 225.651 188.444 200.32 183.518C176.76 178.937 154.023 171.862 131.399 163.888C108.514 155.822 86.5518 149.909 66.6853 135.63C54.9102 127.166 47.8151 114.825 37.3483 105.106C27.9995 96.4253 21.7018 81.1018 23.6505 68.435C24.1274 65.3353 27.68 63.6853 29.7983 61.8558C37.6949 55.036 44.7993 47.3264 53.0954 40.9316C68.8166 28.8131 90.0986 26.0725 109.289 24.5373C162.395 20.2888 212.889 26.3024 264.171 41.1473C284.63 47.0696 303.525 57.0174 322.522 66.3858C339.512 74.7643 359.5 79.0265 375.156 89.8985C392.998 102.289 413.527 110.949 430.378 124.628C442.868 134.767 456.168 153.293 462.088 168.095C465.339 176.222 468.576 184.487 468.128 193.441C467.639 203.234 452.589 200.938 446.557 201.315C432.258 202.208 417.643 204.596 403.63 207.462C394.4 209.35 385.095 208.103 375.911 210.051C361.162 213.18 347.355 214.797 332.229 214.797C313.788 214.797 296.253 210.914 277.869 210.914C232.968 210.914 190.512 200.283 146.715 192.578C124.602 188.688 96.3117 186.188 77.9024 171.87C59.4067 157.484 43.3855 139.972 25.9155 124.413C6.36979 107.005 2.18699 83.8832 2.18699 58.6201C2.18699 -11.9066 120.626 -1.95903 163.325 11.9181C214.085 28.415 260.664 52.3285 307.206 77.9264C326.538 88.5588 347.664 94.1169 367.174 104.136C389.505 115.603 402.794 135.618 416.788 155.583C426.68 169.695 441.05 184.601 448.606 200.344C451.494 206.359 457.616 219.426 454.107 226.445C450.769 233.121 421.796 227.096 417.759 226.445C404.147 224.25 390.798 224.656 377.097 224.504C353.231 224.239 330.501 219.677 306.99 216.738C278.496 213.176 250.047 209.838 221.999 203.58C178.292 193.827 132.441 177.008 98.3952 147.278C84.3704 135.031 70.0073 123.794 54.7132 113.088C44.9961 106.286 23.5426 98.8049 23.5426 83.8586C23.5426 71.9993 37.9241 57.7989 45.0061 49.8837C68.3112 23.8368 100.484 12.8888 135.067 12.8888C150.692 12.8888 166.272 14.245 181.876 14.8302C196.685 15.3855 211.961 23.1161 225.99 27.3416C263.476 38.6325 297.773 53.0844 333.307 69.19C369.644 85.6594 407.82 99.0433 442.027 119.775C452.866 126.344 464.86 133.564 475.894 139.081" stroke="black" stroke-width="3" stroke-linecap="round"/>
</svg>
