<svg width="50" height="50" viewBox="0 0 50 50" fill="none" xmlns="http://www.w3.org/2000/svg">
<ellipse cx="25.0758" cy="24.9998" rx="15.4908" ry="15.4908" transform="rotate(-90 25.0758 24.9998)" fill="#1100D6" fill-opacity="0.8"/>
<path d="M45.0756 34.4819C46.4723 35.1416 47.0827 36.8191 46.2713 38.1334C43.7827 42.1641 40.1883 45.4226 35.8899 47.5028C30.7487 49.9911 24.9104 50.6438 19.3467 49.3524C13.7829 48.061 8.82905 44.9034 5.30946 40.405C1.78987 35.9066 -0.0832444 30.3386 0.00179446 24.6275C0.0868333 18.9165 2.1249 13.4068 5.77686 9.01512C9.42883 4.62349 14.4745 1.61478 20.0742 0.489624C25.674 -0.635529 31.4902 0.190727 36.5551 2.83091C40.7896 5.03825 44.2854 8.40225 46.6529 12.5052C47.4249 13.8432 46.7647 15.5018 45.349 16.1196C43.9332 16.7373 42.3011 16.0763 41.4864 14.764C39.6601 11.8223 37.0698 9.40735 33.9694 7.79118C30.0378 5.74174 25.523 5.10036 21.1762 5.97376C16.8293 6.84716 12.9127 9.18267 10.0778 12.5917C7.24298 16.0007 5.66093 20.2776 5.59492 24.7108C5.52891 29.144 6.98291 33.4662 9.71499 36.9581C12.4471 40.45 16.2925 42.9011 20.6114 43.9035C24.9303 44.9059 29.4622 44.3993 33.4531 42.4678C36.6002 40.9446 39.2613 38.6079 41.1743 35.7219C42.0278 34.4344 43.6788 33.8222 45.0756 34.4819Z" fill="#1100D6" fill-opacity="0.8"/>
</svg>
