<svg width="50" height="47" viewBox="0 0 50 47" fill="none" xmlns="http://www.w3.org/2000/svg">
<path d="M15.5178 45.0765C14.8582 46.4733 13.1807 47.0837 11.8663 46.2722C7.83562 43.7837 4.5772 40.1892 2.49691 35.8909C0.00870391 30.7496 -0.644014 24.9114 0.647365 19.3476C1.93874 13.7839 5.09635 8.83003 9.59477 5.31044C14.0932 1.79085 19.6612 -0.0822678 25.3722 0.00277103C31.0833 0.0878099 36.593 2.12587 40.9846 5.77784C45.3763 9.42981 48.385 14.4755 49.5101 20.0752C50.6353 25.675 49.809 31.4912 47.1688 36.556C44.9615 40.7906 41.5975 44.2864 37.4945 46.6538C36.1566 47.4258 34.498 46.7657 33.8802 45.35V45.35C33.2624 43.9342 33.9234 42.3021 35.2358 41.4874C38.1775 39.6611 40.5924 37.0708 42.2086 33.9704C44.258 30.0388 44.8994 25.524 44.026 21.1771C43.1526 16.8303 40.8171 12.9136 37.4081 10.0788C33.9991 7.24395 29.7221 5.6619 25.2889 5.59589C20.8557 5.52988 16.5336 6.98389 13.0417 9.71597C9.54978 12.4481 7.09869 16.2935 6.09626 20.6124C5.09383 24.9312 5.6005 29.4632 7.53197 33.454C9.05511 36.6012 11.3919 39.2622 14.2779 41.1753C15.5654 42.0287 16.1775 43.6798 15.5178 45.0765V45.0765Z" fill="#1100D6" fill-opacity="0.5"/>
</svg>
